<svg xmlns="http://www.w3.org/2000/svg" xmlns:xlink="http://www.w3.org/1999/xlink" version="1.1"><metadata/><defs><font id="monofur_nfbook" horiz-adv-x="1024"><font-face ascent="1638" descent="-410" units-per-em="2048"/><glyph horiz-adv-x="0"/><glyph/><glyph/><glyph d="M576 384q0 -64 -64 -64t-64 64v832q0 64 64 64t64 -64v-832zM609 97q0 -40 -28.5 -68.5t-68.5 -28.5t-68.5 28.5t-28.5 68.5t28.5 67.5t68.5 27.5t68.5 -27.5t28.5 -67.5z" unicode="!"/><glyph d="M800 1219q0 -13 -5 -27l-128 -320q-16 -41 -57 -41q-26 0 -46 18.5t-20 43.5q0 13 5 27l128 320q16 41 57 41q26 0 46 -18t20 -44zM480 1219q0 -13 -5 -27l-128 -320q-16 -41 -57 -41q-26 0 -46 18.5t-20 43.5q0 13 5 27l128 320q16 41 57 41q26 0 46 -18t20 -44z" unicode="&quot;"/><glyph d="M960 320q0 -64 -64 -64h-107v-192q0 -64 -64 -64t-64 64v192h-298v-192q0 -64 -64 -64t-64 64v192h-107q-64 0 -64 64t64 64h107v512h-107q-64 0 -64 64t64 64h107v192q0 64 64 64t64 -64v-192h298v192q0 64 64 64t64 -64v-192h107q64 0 64 -64t-64 -64h-107v-512h107 q64 0 64 -64zM661 384v512h-298v-512h298z" unicode="#"/><glyph d="M960 384q0 -157 -131 -265q-116 -96 -280 -116v-195q0 -64 -64 -64t-64 64v195q-101 12 -192 57q-104 51 -152 126q-14 22 -14 39q0 26 20 45t47 19q24 0 48 -24q20 -21 39 -43q78 -73 204 -90v512q-133 20 -226 99q-103 89 -104 217q0 128 104 217q93 79 226 99v196 q0 64 64 64t64 -64v-196q192 -26 271 -149q15 -21 15 -39q0 -26 -20.5 -45t-46.5 -19q-23 0 -50 26q-82 81 -169 97v-382q165 -20 280 -116q131 -108 131 -265zM421 775v370q-80 -15 -136 -59q-66 -52 -66 -126t66 -126q56 -44 136 -59zM832 384q0 103 -93 174 q-79 60 -190 77v-502q112 17 190 77q93 71 93 174z" unicode="$"/><glyph d="M533 960q0 -118 -57 -211q-67 -109 -177 -109t-178 109q-57 93 -57 211t57 211q67 109 178 109q110 0 177 -109q57 -93 57 -211zM961 1217q0 -19 -12 -37l-768 -1152q-20 -29 -51 -29q-26 0 -46.5 19.5t-20.5 44.5q0 19 12 37l768 1152q20 29 51 29q26 0 46.5 -19 t20.5 -45zM960 320q0 -118 -57 -211q-67 -109 -178 -109q-110 0 -177 109q-57 93 -57 211t57 211q67 109 177 109t178 -109q57 -93 57 -211zM405 960q0 129 -71 179q-19 13 -35 13q-20 0 -42 -18q-65 -53 -65 -174t65 -174q22 -18 42 -18q16 0 35 13q71 50 71 179zM832 320 q0 121 -65 174q-22 18 -42 18q-16 0 -35 -13q-72 -50 -71 -179q0 -129 71 -179q19 -13 35 -13q20 0 42 18q65 53 65 174z" unicode="%"/><glyph d="M961 64q0 -26 -20 -45.5t-45.5 -19.5t-47.5 22l-137 153q-103 -174 -295 -174q-152 0 -254 118q-98 113 -98 266q0 212 166 326q-108 119 -108 250q0 128 82 222q86 98 212 98q125 0 212 -98q82 -94 82 -222q0 -114 -67 -205q-71 -94 -182 -112l483 -536q17 -20 17 -43z M582 960q0 74 -44 131q-48 61 -121.5 61t-122.5 -61q-44 -57 -44 -131q0 -61 30 -110q15 -21 74 -88q32 6 62 6q73 0 122 61q44 57 44 131zM620 276l-303 337q-125 -71 -125 -229q0 -100 61 -175q65 -81 163 -81q143 0 204 148z" unicode="&amp;"/><glyph d="M641 1219q0 -13 -5 -27l-128 -320q-16 -41 -58 -41q-26 0 -46.5 18.5t-20.5 43.5q0 13 5 27l128 320q16 41 58 41q26 0 46.5 -18t20.5 -44z" unicode="'"/><glyph d="M679 1217q0 -15 -9 -33q-102 -202 -146 -355q-50 -177 -50 -381q0 -203 50 -381q44 -153 146 -354q9 -19 9 -34q0 -26 -20.5 -44.5t-45.5 -18.5q-36 0 -71 59q-7 12 -44 90q-153 328 -152 683q0 355 152 683q37 79 44 91q35 58 71 58q26 0 46 -18.5t20 -44.5z" unicode="("/><glyph d="M678 448q0 -355 -151 -683q-38 -79 -45 -90q-35 -59 -71 -59q-26 0 -46 19t-20 44q0 15 9 34q102 201 146 354q50 177 50 381q0 203 -50 381q-44 153 -146 355q-9 19 -9 33q0 26 20.5 44.5t45.5 18.5q36 0 71 -58q7 -13 44 -91q152 -328 152 -683z" unicode=")"/><glyph d="M960 832q0 -64 -58 -64q-4 0 -274 16l201 -178q20 -18 20 -45q0 -26 -20 -46t-46 -20q-27 0 -45 20l-178 201q16 -270 16 -274q0 -58 -64 -58t-64 58q0 4 16 274l-178 -201q-18 -20 -45 -20q-26 0 -46 20t-20 46q0 27 20 45l201 178q-270 -16 -274 -16q-58 0 -58 64 t58 64q4 0 274 -16l-201 178q-20 18 -20 45q0 26 20 46t46 20q27 0 45 -20l178 -201q-16 270 -16 274q0 58 64 58t64 -58q0 -4 -16 -274l178 201q18 20 45 20q26 0 46 -20t20 -46q0 -27 -20 -45l-201 -178q270 16 274 16q58 0 58 -64z" unicode="*"/><glyph d="M960 544q0 -65 -64 -64h-320v-320q0 -65 -64 -64q-64 0 -64 64v320h-320q-64 0 -64 64q0 63 64 64h320v320q0 63 64 64q64 0 64 -64v-320h320q64 -1 64 -64z" unicode="+"/><glyph d="M632 64q0 -197 -131 -317q-22 -20 -45 -20q-26 0 -46 19.5t-20 46.5q0 21 20 44q94 108 94 227q0 64 64 64t64 -64z" unicode=","/><glyph d="M768 448q0 -64 -64 -64h-384q-64 0 -64 64t64 64h384q64 0 64 -64z" unicode="-"/><glyph d="M609 97q0 -40 -28.5 -68.5t-68.5 -28.5t-68.5 28.5t-28.5 68.5t28.5 67.5t68.5 27.5t68.5 -27.5t28.5 -67.5z" unicode="."/><glyph d="M961 1218q0 -15 -8 -31l-768 -1537q-18 -36 -55 -36q-26 0 -46.5 18.5t-20.5 44.5q0 15 8 31l768 1537q18 36 55 36q26 0 46.5 -18.5t20.5 -44.5z" unicode="/"/><glyph d="M960 544q0 -208 -118 -367q-130 -177 -330 -177q-201 0 -330 177q-118 161 -118 367q0 207 118 367q130 177 330 177q201 0 330 -177q118 -160 118 -367zM832 544q0 153 -82 276q-92 140 -238 140t-238 -140q-82 -122 -82 -275.5t82 -276.5q92 -140 238 -140t238 140 q82 122 82 276zM577 544q0 -26 -19.5 -45.5t-45.5 -19.5t-45.5 19t-19.5 46q0 63 65 63t65 -63z" unicode="0"/><glyph d="M853 64q0 -64 -64 -64h-469q-64 0 -64 64t64 64h171v742l-211 -211q-20 -20 -44 -20q-26 0 -46 19.5t-20 46.5q0 25 19 44l312 312q28 28 53 28q65 0 65 -77v-884h170q64 0 64 -64z" unicode="1"/><glyph d="M896 704q0 -133 -89 -246q-66 -84 -203 -179q-111 -75 -222 -151h450q64 0 64 -64t-64 -64h-640q-73 0 -73 56q0 27 35 59q27 24 77 52q42 22 84 45q453 269 453 492q0 106 -75 181t-181 75t-181 -75t-75 -181q0 -64 -64 -64t-64 64q0 159 112.5 271.5t271.5 112.5 t271.5 -112.5t112.5 -271.5z" unicode="2"/><glyph d="M913 1033q0 -30 -29 -56l-369 -338q164 -10 277 -130q113 -121 113 -285q0 -172 -122.5 -294t-293.5 -122q-109 0 -208 56q-103 57 -153 151q-9 19 -9 34q0 26 20.5 45t46.5 19q29 0 53 -33q108 -144 250 -144q119 0 204 84q84 84 84 204q0 119 -84.5 203.5t-203.5 84.5 q-81 0 -160.5 -52.5t-91.5 -52.5q-26 0 -45 19t-19 45q0 28 24 50l479 439h-493q-64 0 -64 64t64 64h658q72 0 72 -55z" unicode="3"/><glyph d="M960 256q0 -64 -64 -64h-192v-320q0 -64 -64 -64t-64 64v320h-448q-69 0 -69 54q0 22 16 46l512 768q26 38 60 38q57 0 57 -74v-704h192q64 0 64 -64zM576 320v492l-329 -492h329z" unicode="4"/><glyph d="M934 256q0 -185 -131 -316.5t-317 -131.5q-117 0 -224 61q-110 63 -164 163q-9 19 -9 34q0 26 20.5 44.5t45.5 18.5q30 -1 54 -33q12 -19 38 -53q95 -107 239 -107q132 0 226 94t94 226t-93.5 226t-226.5 94q-162 1 -277 -160q-30 -41 -61 -41q-58 0 -58 67v16l90 576 q3 20 23 37t40 17h627q64 0 64 -64t-64 -64h-572l-51 -325q109 69 239 69q185 0 316.5 -131.5t131.5 -316.5z" unicode="5"/><glyph d="M960 1216q0 -64 -64 -64q-172 0 -324.5 -79.5t-251.5 -220.5q90 44 192 44q185 0 316.5 -131.5t131.5 -316.5t-131.5 -316.5t-316.5 -131.5t-316.5 131.5t-131.5 316.5q0 344 244 588t588 244q64 0 64 -64zM832 448q0 132 -94 226t-226 94t-226 -94t-94 -226t94 -226 t226 -94t226 94t94 226z" unicode="6"/><glyph d="M963 1033q0 -19 -11 -39l-618 -1152q-19 -35 -55 -35q-26 0 -46.5 19t-20.5 44q0 16 9 32l568 1058h-661q-64 0 -64 64t64 64h768q67 0 67 -55z" unicode="7"/><glyph d="M896 384q0 -159 -112.5 -271.5t-271.5 -112.5t-271.5 112.5t-112.5 271.5q0 214 183 327q-119 96 -119 249q0 132 94 226t226 94t226 -94t94 -226q0 -153 -119 -249q183 -113 183 -327zM704 960q0 79 -56.5 135.5t-135.5 56.5t-135.5 -56.5t-56.5 -135.5t56.5 -135.5 t135.5 -56.5t135.5 56.5t56.5 135.5zM768 384q0 106 -75 181t-181 75t-181 -75t-75 -181t75 -181t181 -75t181 75t75 181z" unicode="8"/><glyph d="M960 640q0 -344 -244 -588t-588 -244q-64 0 -64 64t64 64q172 0 324.5 79.5t251.5 220.5q-90 -44 -192 -44q-185 0 -316.5 131.5t-131.5 316.5t131.5 316.5t316.5 131.5t316.5 -131.5t131.5 -316.5zM832 640q0 132 -94 226t-226 94t-226 -94t-94 -226t94 -226t226 -94 t226 94t94 226z" unicode="9"/><glyph d="M609 801q0 -40 -28.5 -68.5t-68.5 -28.5t-68.5 28.5t-28.5 68.5t28.5 67.5t68.5 27.5t68.5 -27.5t28.5 -67.5zM609 97q0 -40 -28.5 -68.5t-68.5 -28.5t-68.5 28.5t-28.5 68.5t28.5 67.5t68.5 27.5t68.5 -27.5t28.5 -67.5z" unicode=":"/><glyph d="M649 801q0 -40 -28.5 -68.5t-68.5 -28.5q-39 0 -68 28.5t-29 68.5t28.5 67.5t68.5 27.5q41 0 69 -27.5t28 -67.5zM616 64q0 -197 -131 -317q-22 -20 -45 -20q-26 0 -45.5 19.5t-19.5 46.5q0 21 19 44q94 108 94 227q0 64 64 64t64 -64z" unicode=";"/><glyph d="M961 162q0 -26 -18.5 -46.5t-44.5 -20.5q-15 0 -31 7l-757 379q-47 24 -47 63q0 38 47 63l757 379q15 8 31 7q26 0 44.5 -20.5t18.5 -46.5q0 -37 -36 -56l-654 -326l654 -326q36 -19 36 -56z" unicode="&lt;"/><glyph d="M960 736q0 -63 -64 -64h-768q-64 0 -64 64q0 65 64 64h768q64 1 64 -64zM960 352q0 -63 -64 -64h-768q-64 0 -64 64q0 65 64 64h768q64 1 64 -64z" unicode="="/><glyph d="M961 544q0 -39 -47 -63l-757 -379q-15 -8 -31 -7q-26 0 -44.5 20.5t-18.5 46.5q0 37 36 56l654 326l-654 326q-36 19 -36 56q0 26 18.5 46.5t44.5 20.5q15 0 31 -7l757 -379q47 -25 47 -63z" unicode="&gt;"/><glyph d="M960 960q0 -151 -154 -242q-131 -78 -294 -78q-116 0 -164 -65q-12 -15 -12 -31q0 -20 24 -45q50 -51 152 -51q28 0 69.5 11t53.5 11q26 0 44 -20t18 -46q0 -84 -185 -84q-112 0 -201 55q-103 64 -103 169q0 106 103 169q89 55 201 55q211 0 294 120q26 37 26 72t-26 72 q-84 120 -294 120q-211 0 -294 -120q-26 -37 -26 -72q0 -64 -64 -64t-64 64q0 151 154 242q131 78 294 78q162 0 294 -78q154 -91 154 -242zM609 97q0 -40 -28.5 -68.5t-68.5 -28.5t-68.5 28.5t-28.5 68.5t28.5 67.5t68.5 27.5t68.5 -27.5t28.5 -67.5z" unicode="?"/><glyph d="M960 789q0 -185 -101 -329q-113 -161 -290 -161q-125 0 -205 111q-72 101 -71 230q0 130 71 230q80 111 205 111q96 0 168 -70q67 -63 93 -161q2 20 2 39q0 130 -66 238q-76 125 -197 125q-120 0 -218 -96q-86 -84 -127 -209q-32 -97 -32 -207q-1 -109 32 -207 q41 -125 127 -209q98 -96 218 -96q118 0 217 94q15 16 45 50q24 26 49 27q26 0 46 -20t20 -45q0 -20 -13 -39q-63 -88 -160 -140q-99 -55 -204 -55q-230 0 -375 212q-130 189 -130 428q0 240 130 428q146 212 375 212q177 0 290 -161q101 -145 101 -330zM718 640 q0 74 -37 138q-43 75 -112 75t-112 -75q-37 -64 -36 -138q0 -74 36 -138q43 -75 112 -75t112 75q37 64 37 138z" unicode="@"/><glyph d="M961 61q0 -61 -67 -61q-44 0 -59 44l-113 340h-420l-113 -340q-15 -44 -59 -44q-67 0 -67 61q0 11 4 23l381 1142q18 54 64 54t64 -54l381 -1142q4 -12 4 -23zM679 512l-167 502l-167 -502h334z" unicode="A"/><glyph d="M960 383q0 -159 -112.5 -271.5t-272.5 -112.5l-362 1q-26 0 -45 19t-19 45v1152q0 26 19.5 45t44.5 19h363q132 0 226 -94t94 -226q0 -153 -119 -249q183 -113 183 -328zM768 960q0 79 -56.5 135.5t-135.5 56.5h-299v-384h299q79 0 135.5 56.5t56.5 135.5zM832 383 q0 106 -75 181.5t-181 75.5h-299v-512l299 -1q106 0 181 75t75 181z" unicode="B"/><glyph d="M961 233q0 -19 -15 -40q-60 -85 -161.5 -139t-206.5 -54q-231 0 -381 210q-133 189 -133 430t133 430q149 210 381 210q105 0 207 -54t161 -139q15 -21 15 -40q0 -26 -20 -45.5t-47 -19.5q-16 0 -38.5 16t-26.5 30q-1 2 -18 20q-104 104 -233 104q-119 0 -218 -91 q-88 -80 -131 -203q-37 -102 -37 -218t37 -218q44 -122 130 -203q99 -91 219 -91q128 0 233 104q8 6 18 19q1 13 26 30t39 17q26 0 46.5 -19.5t20.5 -45.5z" unicode="C"/><glyph d="M960 640q0 -265 -187.5 -452.5t-452.5 -187.5h-107q-26 0 -45 19t-19 45v1152q0 26 19.5 45t44.5 19h107q265 0 452.5 -187.5t187.5 -452.5zM832 640q0 212 -150 362t-362 150h-43v-1024h43q212 0 362 150t150 362z" unicode="D"/><glyph d="M960 64q0 -64 -64 -64h-683q-26 0 -45 19t-19 45v1152q0 26 19.5 45t44.5 19h683q64 0 64 -64t-64 -64h-619v-448h619q64 0 64 -64t-64 -64h-619v-448h619q64 0 64 -64z" unicode="E"/><glyph d="M960 640q0 -64 -64 -64h-619v-512q0 -64 -64 -64t-64 64v1153q0 63 63 63h684q64 0 64 -64t-64 -64h-619v-448h619q64 0 64 -64z" unicode="F"/><glyph d="M918 1047q0 -26 -20 -45.5t-46 -19.5t-50 27q-11 14 -36 43q-97 100 -213 100t-211 -98q-81 -84 -119 -207q-31 -97 -31 -207t31 -207q38 -123 119 -207q95 -98 211 -98q134 0 236 126v386q0 64 64 64t64 -64v-408q0 -88 -141 -165q-125 -67 -223 -67q-224 0 -365 215 q-124 188 -124 425t124 425q141 215 365 215q102 0 199 -55q95 -54 153 -140q13 -19 13 -38z" unicode="G"/><glyph d="M875 64q0 -64 -64 -64t-64 64v512h-470v-512q0 -64 -64 -64t-64 64v1152q0 64 64 64t64 -64v-512h470v512q0 64 64 64t64 -64v-1152z" unicode="H"/><glyph d="M832 64q0 -64 -64 -64h-512q-64 0 -64 64t64 64h192v1024h-192q-64 0 -64 64t64 64h512q64 0 64 -64t-64 -64h-192v-1024h192q64 0 64 -64z" unicode="I"/><glyph d="M875 64q0 -185 -131.5 -316.5t-316.5 -131.5q-97 0 -194 44q-102 46 -154 122q-15 22 -16 41q0 26 20 45t47 19q23 0 47 -24q121 -119 250 -119q132 0 226 94t94 226v1088h-619q-64 0 -64 64t64 64h684q63 0 63 -63v-1153z" unicode="J"/><glyph d="M961 64q0 -26 -19.5 -45.5t-46.5 -19.5q-26 0 -45 21l-555 576q-17 18 -18 32v-564q0 -64 -64 -64t-64 64v1152q0 64 64 64t64 -64v-564q3 18 18 32l555 576q20 20 45 21q26 0 46 -19.5t20 -45.5q0 -25 -19 -44l-512 -532l512 -532q19 -19 19 -44zM284 611q-5 9 -7 18v-1 q0 -5 7 -17zM292 599q-4 6 -10 16q4 -8 10 -16z" unicode="K"/><glyph d="M960 64q0 -64 -64 -64h-683q-64 0 -64 63v1153q0 64 64 64t64 -64v-1088h619q64 0 64 -64z" unicode="L"/><glyph d="M960 62q0 -62 -65 -62q-55 0 -62 55l-110 826l-147 -568q-15 -57 -64 -57t-64 57l-147 568l-110 -826q-7 -55 -62 -55q-65 0 -65 62q0 5 1 11l153 1144q8 63 64 63q49 0 64 -55l166 -648l166 648q15 55 63 55q58 0 65 -63l153 -1144q1 -6 1 -11z" unicode="M"/><glyph d="M876 63q0 -64 -67 -64q-37 0 -59 44l-473 910v-889q0 -64 -64 -64t-64 64l-1 1153q0 64 67 64q37 0 59 -44l473 -910v889q0 64 64 64t64 -64z" unicode="N"/><glyph d="M960 640q0 -230 -108 -417q-128 -223 -340 -223t-340 223q-108 188 -108 417q0 230 108 417q128 223 340 223t340 -223q108 -187 108 -417zM832 640q0 112 -28 210q-33 116 -103 200q-85 102 -189 102t-189 -102q-69 -84 -103 -200q-28 -98 -28 -210t28 -210 q33 -116 103 -200q85 -102 189 -102t189 102q69 84 103 200q28 98 28 210z" unicode="O"/><glyph d="M960 896q0 -159 -112.5 -271.5t-271.5 -112.5h-299v-448q0 -64 -64 -64t-64 64v1152q0 26 19.5 45t44.5 19h363q159 0 271.5 -112.5t112.5 -271.5zM832 896q0 106 -75 181t-181 75h-299v-512h299q106 0 181 75t75 181z" unicode="P"/><glyph d="M960 -320q0 -64 -64 -64q-150 0 -265 122q-97 103 -146 263q-201 16 -320 234q-101 184 -101 405q0 230 108 417q128 223 340 223t340 -223q108 -188 108 -417q0 -199 -82 -369q-96 -201 -264 -256q36 -106 103 -181q82 -90 179 -90q64 0 64 -64zM832 640q0 112 -28 210 q-33 116 -103 200q-85 102 -189 102t-189 -102q-69 -84 -103 -199q-28 -99 -28 -211q0 -159 60 -296q73 -167 204 -207q-8 60 -8 119q0 64 64 64t64 -64q0 -58 8 -113q124 48 192 209q56 134 56 288z" unicode="Q"/><glyph d="M961 65q0 -26 -19.5 -46t-46.5 -20q-25 0 -44 20l-504 503q-28 28 -28 53q0 65 77 65h180q106 0 181 75t75 181t-75 181t-181 75h-299v-1088q0 -64 -64 -64t-64 64v1153q0 63 63 63h364q159 0 271.5 -112.5t112.5 -271.5t-112.5 -271.5t-271.5 -112.5h-38l403 -403 q20 -19 20 -44z" unicode="R"/><glyph d="M960 384q0 -173 -155 -284q-140 -100 -320 -100q-117 0 -227 46q-120 51 -181 140q-14 20 -14 39q0 26 20 45t47 19q25 0 49 -26q12 -15 38 -41q104 -94 268 -94q125 0 228 64q119 74 119 192t-119 192q-103 64 -228 64q-149 0 -266 84q-128 92 -128 236t128 236 q116 84 266 84q96 0 186 -38q99 -42 149 -115q15 -20 15 -39q0 -26 -20.5 -45t-46.5 -19q-24 0 -50 26q-100 102 -233 102q-95 0 -174 -48q-92 -55 -92 -144t92 -144q79 -48 174 -48q180 0 320 -100q155 -111 155 -284z" unicode="S"/><glyph d="M960 1216q0 -64 -64 -64h-320v-1088q0 -64 -64 -64t-64 64v1088h-320q-64 0 -64 64t64 64h768q64 0 64 -64z" unicode="T"/><glyph d="M917 405q0 -168 -118.5 -286.5t-286.5 -118.5t-286.5 118.5t-118.5 286.5v811q0 64 64 64t64 -64v-811q0 -114 81.5 -195.5t195.5 -81.5t195.5 81.5t81.5 195.5v811q0 64 64 64t64 -64v-811z" unicode="U"/><glyph d="M961 1219q0 -11 -4 -23l-381 -1142q-18 -54 -64 -54t-64 54l-381 1142q-4 12 -4 23q0 61 67 61q44 0 59 -44l323 -970l323 970q15 44 59 44q67 0 67 -61z" unicode="V"/><glyph d="M960 1219q0 -7 -1 -13l-191 -1145q-10 -61 -65 -61q-49 0 -63 56l-128 512l-128 -512q-14 -56 -63 -56q-55 0 -65 61l-191 1145q-1 6 -1 13q0 61 65 61q54 0 62 -54l142 -848l115 461q14 57 64 57q49 0 64 -57l115 -461l142 848q9 54 62 54q65 0 65 -61z" unicode="W"/><glyph d="M961 63q0 -26 -20.5 -45t-46.5 -19q-32 0 -51 29l-331 497l-331 -497q-20 -29 -51 -29q-26 0 -46.5 19.5t-20.5 44.5q0 19 12 37l360 540l-360 540q-12 18 -12 37q0 26 20.5 45t46.5 19q32 0 51 -29l331 -497l331 497q20 29 51 29q26 0 46.5 -19.5t20.5 -44.5 q0 -19 -12 -37l-360 -540l360 -540q12 -18 12 -37z" unicode="X"/><glyph d="M961 1217q0 -19 -12 -37l-373 -560v-556q0 -64 -64 -64t-64 64v556l-373 560q-12 18 -12 37q0 26 20.5 45t46.5 19q32 0 51 -29l331 -497l331 497q20 29 51 29q26 0 46.5 -19t20.5 -45z" unicode="Y"/><glyph d="M961 1217q0 -19 -18 -46l-696 -1043h649q64 0 64 -64t-64 -64l-765 -1q-67 0 -68 64q0 19 18 46l696 1043h-649q-64 0 -64 64t64 64l765 1q68 0 68 -64z" unicode="Z"/><glyph d="M768 -320q0 -64 -64 -64h-384q-26 0 -45 19t-19 45v1536q0 26 19 45t45 19h384q64 0 64 -64t-64 -64h-320v-1408h320q64 0 64 -64z" unicode="["/><glyph d="M961 -323q0 -26 -20.5 -44.5t-46.5 -18.5q-38 0 -55 36l-768 1537q-8 15 -8 31q0 26 20.5 44.5t46.5 18.5q38 0 55 -36l768 -1537q8 -16 8 -31z" unicode="\"/><glyph d="M768 1216v-1536q0 -26 -19 -45t-45 -19h-384q-64 0 -64 64t64 64h320v1408h-320q-64 0 -64 64t64 64h384q26 0 45 -19t19 -45z" unicode="]"/><glyph d="M833 961q0 -26 -19.5 -46t-46.5 -20q-25 0 -44 20l-211 211l-211 -211q-20 -20 -44 -20q-26 0 -46 19.5t-20 46.5q0 25 20 44l256 256q20 20 44 20q26 0 46 -20l256 -256q20 -19 20 -44z" unicode="^"/><glyph d="M960 64q0 -64 -64 -64h-768q-64 0 -64 64t64 64h768q64 0 64 -64z" unicode="_"/><glyph d="M385 893q0 -26 -20.5 -44t-46.5 -18q-42 0 -58 41l-128 320q-5 14 -5 27q0 26 20.5 44t46.5 18q42 0 58 -41l128 -320q5 -14 5 -27z" unicode="`"/><glyph d="M917 64q0 -64 -64 -64q-66 0 -64 90q-126 -90 -298 -90q-158 0 -283 79q-144 92 -144 241q0 148 144 241q125 79 283 79q172 0 298 -90v26q0 38 -26 76q-79 116 -272 116q-111 0 -220 -63q-22 -13 -38 -13q-26 0 -45 20t-19 47q0 62 134 105q104 32 188 32q157 0 282 -79 q144 -92 144 -241v-512zM789 320q0 61 -58 112q-49 43 -115 62q-58 18 -125 18q-198 0 -276 -121q-23 -36 -23 -71t23 -71q78 -121 276 -121q67 0 125 18q67 20 115 62q58 51 58 112z" unicode="a"/><glyph d="M960 448q0 -182 -122 -313q-125 -135 -305 -135t-304 135q-122 131 -122 313v768q0 64 64 64t64 -64v-448q124 128 298 128q180 0 305 -135q122 -131 122 -313zM832 448q0 129 -84 223q-87 97 -215 97q-127 0 -214 -97q-84 -94 -84 -223t84 -223q87 -97 214 -97t215 97 q84 94 84 223z" unicode="b"/><glyph d="M961 721q0 -26 -19.5 -46t-45.5 -20q-18 0 -42 16q-137 97 -276 97q-147 0 -261 -85q-125 -93 -125 -235t125 -235q113 -85 261 -85q138 0 276 96q23 16 41 17q26 0 46 -20t20 -46q0 -25 -24 -48q-60 -59 -167 -95q-98 -32 -192 -32q-201 0 -352 122q-162 130 -162 326 t162 326q151 122 352 122q94 0 192 -32q108 -36 168 -96q23 -23 23 -47z" unicode="c"/><glyph d="M875 64q0 -64 -64 -64q-47 0 -59 41q-5 18 -5 80q-116 -121 -278 -121q-175 0 -292 138q-113 132 -113 310q0 177 113 310q118 138 292 138q161 0 278 -121v441q0 64 64 64t64 -64v-1152zM747 448q1 125 -75 218q-81 102 -203 102q-121 0 -202 -102q-75 -94 -75 -218 q0 -125 75 -218q81 -102 202 -102t203 102q76 93 75 218z" unicode="d"/><glyph d="M961 257q0 -16 -10 -35q-59 -102 -177 -163q-112 -59 -235 -59q-192 0 -331 127q-144 131 -144 321t144 321q139 127 331 127q70 0 146 -25q85 -28 170 -89q105 -77 105 -146q0 -34 -33 -52l-647 -348q105 -108 259 -108q165 0 267 114q12 15 36 47t52 32q26 0 46.5 -19 t20.5 -45zM800 660q-104 108 -261 108q-138 0 -240 -90q-107 -94 -107 -230q0 -55 19 -104z" unicode="e"/><glyph d="M961 1087q0 -26 -20 -45t-47 -19q-21 1 -55 33q-48 46 -74 63q-54 33 -125 33q-106 0 -181 -75t-75 -181h320q64 0 64 -64t-64 -64h-320v-704q0 -64 -64 -64t-64 64v704h-128q-64 0 -64 64t64 64h128q0 159 112.5 271.5t271.5 112.5q87 0 172 -41q90 -43 135 -113 q14 -21 14 -39z" unicode="f"/><glyph d="M960 832q0 -52 -55 -62q-14 -3 -95 -2q73 -84 73 -192q0 -154 -137 -248q214 -112 214 -328q0 -169 -143 -281q-131 -103 -305 -103t-305 103q-143 112 -143 281q0 64 64 64t64 -64q0 -115 106 -189q95 -67 214 -67t214 67q106 74 106 189t-106 189q-95 67 -214 67 q-144 0 -253 86q-118 93 -118 234t118 234q109 86 253 86h384q64 0 64 -64zM755 576q0 86 -81 143q-72 49 -162 49t-162 -49q-81 -56 -81 -143q0 -86 81 -143q72 -49 162 -49t162 49q81 57 81 143z" unicode="g"/><glyph d="M917 64q0 -64 -64 -64t-64 64v448q0 106 -75 181t-181 75t-181 -75t-75 -181v-448q0 -64 -64 -64t-64 64v1152q0 64 64 64t64 -64v-418q109 98 256 98q159 0 271.5 -112.5t112.5 -271.5v-448z" unicode="h"/><glyph d="M609 1183q0 -40 -28.5 -67.5t-68.5 -27.5t-68.5 27.5t-28.5 67.5t28.5 68.5t68.5 28.5t68.5 -28.5t28.5 -68.5zM832 64q0 -64 -64 -64h-256q-64 0 -64 64v704h-192q-64 0 -64 64t64 64h257q63 0 63 -64v-704h192q64 0 64 -64z" unicode="i"/><glyph d="M908 1183q0 -40 -28.5 -67.5t-68.5 -27.5t-69 27.5t-29 67.5t29 68.5t69 28.5t68.5 -28.5t28.5 -68.5zM875 64q0 -185 -131.5 -316.5t-316.5 -131.5q-97 0 -194 44q-102 46 -154 122q-15 22 -16 41q0 26 20 45t47 19q23 0 47 -24q121 -119 250 -119q132 0 226 94t94 226 v704h-192q-64 0 -64 64t64 64h257q63 0 63 -63v-769z" unicode="j"/><glyph d="M961 66q0 -26 -19.5 -46.5t-44.5 -20.5q-20 0 -38 12l-546 379q-32 21 -36 46v-372q0 -64 -64 -64t-64 64v1152q0 64 64 64t64 -64v-756q4 25 36 46l546 379q18 12 38 12q26 0 45 -20.5t19 -46.5q0 -32 -28 -51l-479 -331l479 -331q28 -19 28 -51z" unicode="k"/><glyph d="M961 193q0 -18 -14 -39q-45 -69 -135 -113q-85 -41 -172 -41q-159 0 -271.5 112.5t-112.5 271.5v832q0 64 64 64t64 -64v-832q0 -106 75 -181t181 -75q93 0 166 64.5t88 64.5q26 0 46.5 -19t20.5 -45z" unicode="l"/><glyph d="M960 64q0 -64 -64 -64t-64 64v576q0 53 -37.5 90.5t-90.5 37.5t-90.5 -37.5t-37.5 -90.5v-576q0 -64 -64 -64t-64 64v576q0 53 -37.5 90.5t-90.5 37.5t-90.5 -37.5t-37.5 -90.5v-576q0 -64 -64 -64t-64 64v768q0 64 64 64q44 0 59 -38q61 38 133 38q115 0 192 -87 q77 87 192 87q106 0 181 -75t75 -181v-576z" unicode="m"/><glyph d="M917 64q0 -64 -64 -64t-64 64v448q0 106 -75 181t-181 75t-181 -75t-75 -181v-448q0 -64 -64 -64t-64 64v768q0 64 64 64q65 0 64 -98q109 98 256 98q159 0 271.5 -112.5t112.5 -271.5v-448z" unicode="n"/><glyph d="M960 448q0 -185 -131.5 -316.5t-316.5 -131.5t-316.5 131.5t-131.5 316.5t131.5 316.5t316.5 131.5t316.5 -131.5t131.5 -316.5zM832 448q0 132 -94 226t-226 94t-226 -94t-94 -226t94 -226t226 -94t226 94t94 226z" unicode="o"/><glyph d="M960 448q0 -177 -113 -310q-118 -138 -292 -138q-161 0 -278 121v-441q0 -64 -64 -64t-64 64v1152q0 64 64 64q47 0 59 -41q5 -18 5 -80q116 121 278 121q175 0 292 -138q113 -133 113 -310zM832 448q0 125 -75 218q-81 102 -202 102t-203 -102q-75 -94 -75 -218 q-1 -125 75 -218q81 -102 203 -102q121 0 202 102q75 93 75 218z" unicode="p"/><glyph d="M875 -320q0 -64 -64 -64t-64 64v441q-116 -121 -278 -121q-175 0 -292 138q-113 132 -113 310q0 177 113 310q118 138 292 138q161 0 278 -121v32q-2 89 64 89q64 0 64 -64v-1152zM747 448q1 125 -75 218q-81 102 -203 102q-121 0 -202 -102q-75 -94 -75 -218 q0 -125 75 -218q81 -102 202 -102t203 102q76 93 75 218z" unicode="q"/><glyph d="M961 689q0 -26 -20 -45t-47 -19q-24 0 -47 24q-118 119 -250 119t-226 -94t-94 -226v-384q0 -64 -64 -64t-64 64v768q0 64 64 64q49 0 62 -48q3 -15 2 -87q131 135 320 135q97 0 194 -44q102 -46 154 -122q16 -23 16 -41z" unicode="r"/><glyph d="M901 288q0 -137 -137 -218q-117 -70 -263 -70q-109 0 -209 42q-115 49 -161 135q-9 18 -9 33q0 26 20.5 44.5t46.5 18.5q29 0 53 -33q84 -112 259 -112q172 0 246 95q26 35 26 65q0 52 -60 97q-48 34 -109 49q-51 14 -116 14q-110 0 -197 55q-101 64 -101 169t104 169 q89 55 201 55q70 0 139 -25q79 -28 116 -77q17 -22 17 -41q0 -26 -20 -45.5t-46 -19.5q-11 0 -70.5 40t-135.5 40q-116 0 -163 -63q-14 -17 -14 -33q0 -61 107 -87q36 -9 85 -9q143 0 258 -71q133 -83 133 -217z" unicode="s"/><glyph d="M961 193q0 -18 -14 -39q-45 -69 -135 -113q-85 -41 -172 -41q-159 0 -271.5 112.5t-112.5 271.5v384h-128q-64 0 -64 64t64 64h128v320q0 64 64 64t64 -64v-320h320q64 0 64 -64t-64 -64h-320v-384q0 -106 75 -181t181 -75q72 0 125 33q26 16 74 63q34 33 55 33 q26 0 46.5 -19t20.5 -45z" unicode="t"/><glyph d="M917 405q0 -168 -118.5 -286.5t-286.5 -118.5t-286.5 118.5t-118.5 286.5v427q0 64 64 64t64 -64v-427q0 -114 81.5 -195.5t195.5 -81.5t195.5 81.5t81.5 195.5v427q0 64 64 64t64 -64v-427z" unicode="u"/><glyph d="M961 834q0 -15 -8 -31l-378 -757q-24 -47 -63 -47t-63 47l-378 757q-8 15 -8 31q0 26 20.5 44.5t46.5 18.5q38 0 55 -36l327 -654l327 654q18 36 55 36q26 0 46.5 -18.5t20.5 -44.5z" unicode="v"/><glyph d="M961 835q0 -10 -4 -22l-227 -758q-16 -55 -64 -55t-64 55l-90 297l-90 -297q-16 -55 -64 -55t-64 55l-227 758q-3 11 -4 22q0 61 67 61q46 0 59 -45l169 -564l87 288q-75 249 -75 260q0 61 67 61q46 0 60 -45l169 -564l169 564q14 45 59 45q67 0 67 -61z" unicode="w"/><glyph d="M961 831q0 -25 -20 -44l-339 -339l339 -339q20 -20 20 -44q0 -26 -19.5 -46t-46.5 -20q-25 0 -44 20l-339 339l-339 -339q-20 -20 -44 -20q-26 0 -46 19.5t-20 46.5q0 25 20 44l339 339l-339 339q-20 20 -20 44q0 26 19.5 46t46.5 20q25 0 44 -20l339 -339l339 339 q20 20 44 20q26 0 46 -20t20 -46z" unicode="x"/><glyph d="M875 832v-832q0 -159 -113 -271.5t-271 -112.5q-101 0 -191 51q-94 53 -141 139q-9 18 -10 34q0 26 20.5 45t46.5 19q29 0 54 -33q96 -127 221 -127q106 0 181 75t75 181v98q-109 -98 -256 -98q-159 0 -271.5 112.5t-112.5 271.5v448q0 64 64 64t64 -64v-448 q0 -106 75 -181t181 -75t181 75t75 180v449q0 64 64 64t64 -64z" unicode="y"/><glyph d="M961 831q0 -25 -28 -53l-651 -650h614q64 0 64 -64t-64 -64l-766 -1q-67 0 -67 66q0 25 28 53l651 650h-614q-64 0 -64 64t64 64l766 1q67 0 67 -66z" unicode="z"/><glyph d="M768 -320q0 -64 -64 -64q-106 0 -181 75t-75 181v384q0 53 -37.5 90.5t-90.5 37.5q-64 0 -64 64t64 64q53 0 90.5 37.5t37.5 90.5v384q0 106 75 181t181 75q64 0 64 -64t-64 -64q-53 0 -90.5 -37.5t-37.5 -90.5v-384q0 -115 -87 -192q87 -77 87 -192v-384 q0 -53 37.5 -90.5t90.5 -37.5q64 0 64 -64z" unicode="{"/><glyph d="M576 -320q0 -64 -64 -64t-64 64v1536q0 64 64 64t64 -64v-1536z" unicode="|"/><glyph d="M768 448q0 -64 -64 -64q-53 0 -90.5 -37.5t-37.5 -90.5v-384q0 -106 -75 -181t-181 -75q-64 0 -64 64t64 64q53 0 90.5 37.5t37.5 90.5v384q0 115 87 192q-87 77 -87 192v384q0 53 -37.5 90.5t-90.5 37.5q-64 0 -64 64t64 64q106 0 181 -75t75 -181v-384 q0 -53 37.5 -90.5t90.5 -37.5q64 0 64 -64z" unicode="}"/><glyph d="M833 451q0 -20 -16 -47q-49 -84 -177 -84q-73 0 -151 64t-105 64q-44 0 -67 -20q-15 -44 -59 -44q-67 0 -67 61q0 20 16 47q49 84 177 84q73 0 151 -64t105 -64q52 0 74 32t52 32q67 0 67 -61z" unicode="~"/><glyph/><glyph d="M609 799q0 -40 -28.5 -67.5t-68.5 -27.5t-68.5 27.5t-28.5 67.5t28.5 68.5t68.5 28.5t68.5 -28.5t28.5 -68.5zM576 -320q0 -64 -64 -64t-64 64v832q0 64 64 64t64 -64v-832z" unicode="¡"/><glyph d="M961 721q0 -26 -19.5 -46t-45.5 -20q-18 0 -42 16q-113 79 -212 93v-632q100 13 212 92q23 16 41 17q26 0 46 -20t20 -46q0 -25 -24 -48q-106 -103 -295 -124v-152q0 -64 -64 -64t-64 64v152q-183 20 -312 140q-138 127 -138 305t138 305q129 119 312 140v152q0 64 64 64 t64 -64v-152q190 -20 296 -125q23 -23 23 -47zM514 132v632q-129 -18 -221 -101q-101 -90 -101 -215t101 -215q92 -83 221 -101z" unicode="¢"/><glyph d="M960 64q0 -64 -64 -64h-768q-67 0 -67 64t67 64q53 0 90.5 37.5t37.5 90.5v256h-128q-64 0 -64 64t64 64h128v128h-128q-64 0 -64 64t64 64h128v128q0 106 75 181t181 75q73 0 125 -26q67 -33 67 -99q0 -67 -51 -66q-19 0 -58 31.5t-83 31.5q-53 0 -90.5 -37.5 t-37.5 -90.5v-128h128q64 0 64 -64t-64 -64h-128v-128h128q64 0 64 -64t-64 -64h-128v-256q0 -69 -34 -128h546q64 0 64 -64z" unicode="£"/><glyph d="M961 831.5q0 -25.5 -91 -115.5q90 -119 90 -268t-90 -268q90 -90 91 -115q0 -26 -19.5 -46t-46.5 -20q-26 0 -115 91q-119 -90 -268 -90t-268 90q-90 -90 -115 -91q-26 0 -46 19.5t-20 46.5q0 26 91 115q-90 119 -90 268t90 268q-90 90 -91 115q0 26 19.5 46t46.5 20 q26 0 115 -91q119 90 268 90t268 -90q90 90 115 91q26 0 46 -20t20 -45.5zM832 448q0 132 -94 226t-226 94t-226 -94t-94 -226t94 -226t226 -94t226 94t94 226z" unicode="¤"/><glyph d="M961 1217q0 -19 -12 -37l-318 -476h137q64 0 64 -64t-64 -64h-192v-128h192q64 0 64 -64t-64 -64h-192v-256q0 -64 -64 -64t-64 64v256h-192q-64 0 -64 64t64 64h192v128h-192q-64 0 -64 64t64 64h137l-318 476q-12 18 -12 37q0 26 20.5 45t46.5 19q32 0 51 -29l331 -497 l331 497q20 29 51 29q26 0 46.5 -19t20.5 -45z" unicode="¥"/><glyph d="M576 576q0 -64 -64 -64t-64 64v640q0 64 64 64t64 -64v-640zM576 -320q0 -64 -64 -64t-64 64v640q0 64 64 64t64 -64v-640z" unicode="¦"/><glyph d="M960 -64q0 -151 -154 -242q-131 -78 -294 -78q-106 0 -208 37q-117 41 -174 114q-16 21 -17 42q0 26 20.5 45.5t46.5 19.5q21 0 47 -23q119 -107 285 -107q214 0 296 123q24 36 24 69t-24 69q-82 123 -296 123q-162 0 -294 78q-154 91 -154 242q0 162 178 256 q-178 94 -178 256q0 151 154 242q131 78 294 78q106 0 208 -37q117 -41 174 -114q16 -21 17 -42q0 -26 -20.5 -45.5t-46.5 -19.5q-21 0 -47 23q-119 107 -285 107q-214 0 -296 -123q-24 -36 -24 -69t24 -69q82 -123 296 -123q162 0 294 -78q154 -91 154 -242 q0 -162 -178 -256q178 -94 178 -256zM832 448q0 61 -64 113q-52 42 -120 61q-63 18 -136 18t-136 -18q-68 -20 -120 -61q-64 -52 -64 -113t64 -113q52 -42 120 -61q63 -18 136 -18t136 18q68 20 120 61q64 52 64 113z" unicode="§"/><glyph d="M800 1120q0 -40 -28.5 -68t-67.5 -28q-40 0 -68 28t-28 68t28 68t68 28t68 -28t28 -68zM416 1120q0 -40 -28.5 -68t-67.5 -28q-40 0 -68 28t-28 68t28 68t68 28t68 -28t28 -68z" unicode="¨"/><glyph d="M960 640q0 -230 -108 -417q-128 -223 -340 -223t-340 223q-108 188 -108 417q0 230 108 417q128 223 340 223t340 -223q108 -187 108 -417zM832 640q0 112 -28 210q-33 116 -103 200q-85 102 -189 102t-189 -102q-69 -84 -103 -200q-28 -98 -28 -210t28 -210 q33 -116 103 -200q85 -102 189 -102t189 102q69 84 103 200q28 98 28 210zM713 437q0 -16 -12 -36q-66 -113 -189 -113q-120 0 -194 120q-62 103 -62 232t62 232q73 119 194 120q123 0 189 -113q12 -20 12 -36q0 -26 -20.5 -45t-46.5 -19q-27 0 -62.5 42.5t-71.5 42.5 q-22 0 -48 -19q-80 -60 -80 -205t80 -205q26 -19 48 -19q36 0 71.5 42.5t62.5 42.5q26 0 46.5 -19t20.5 -45z" unicode="©"/><glyph d="M864 678q0 -64 -64 -64q-58 0 -64 55q-100 -55 -224 -55q-127 0 -230 58q-121 69 -122 186q0 117 122 186q102 57 230 57q124 0 223 -54q-15 53 -93 82q-62 23 -130 23q-85 0 -170 -43q-21 -11 -35 -11q-26 0 -45 20.5t-19 47.5q0 55 111 89q83 25 158 25q127 0 230 -57 q123 -69 122 -186v-359zM864 448q0 -64 -64 -64h-576q-63 0 -64 64q0 64 64 64h576q64 0 64 -64zM736 858q0 20 -22 45q-61 70 -202 70q-151 0 -209 -78q-15 -21 -15 -37q0 -26 31 -56q65 -60 193 -60q142 0 203 71q21 25 21 45z" unicode="ª"/><glyph d="M897 62q0 -26 -20.5 -44.5t-46.5 -18.5q-38 0 -55 36l-188 376q-12 23 -12 37t12 37l188 376q18 36 55 36q26 0 46.5 -18.5t20.5 -44.5q0 -15 -8 -31l-177 -355l177 -355q8 -16 8 -31zM449 62q0 -26 -20.5 -44.5t-46.5 -18.5q-38 0 -55 36l-188 376q-12 23 -12 37t12 37 l188 376q18 36 55 36q26 0 46.5 -18.5t20.5 -44.5q0 -15 -8 -31l-177 -355l177 -355q8 -16 8 -31z" unicode="«"/><glyph d="M875 64q0 -64 -64 -64t-64 64v320h-619q-64 0 -64 64t64 64h683q26 0 45 -19t19 -45v-384z" unicode="¬"/><glyph d="M960 544q0 -65 -64 -64h-768q-64 0 -64 64q0 63 64 64h768q64 -1 64 -64z" unicode="­"/><glyph d="M960 640q0 -230 -108 -417q-128 -223 -340 -223t-340 223q-108 188 -108 417q0 230 108 417q128 223 340 223t340 -223q108 -187 108 -417zM832 640q0 112 -28 210q-33 116 -103 200q-85 102 -189 102t-189 -102q-69 -84 -103 -200q-28 -98 -28 -210t28 -210 q33 -116 103 -200q85 -102 189 -102t189 102q69 84 103 200q28 98 28 210zM769 352q0 -26 -19.5 -45.5t-46.5 -19.5q-25 0 -44 19l-211 211v-165q0 -63 -64 -64q-64 0 -64 64v576q0 25 19 44.5t45 19.5h160q92 0 158 -66t66 -158q0 -78 -48 -139t-124 -79l153 -152 q20 -21 20 -46zM640 768q0 39 -28 67.5t-68 28.5h-96v-192h96q39 0 67.5 28.5t28.5 67.5z" unicode="®"/><glyph d="M960 1600q0 -64 -64 -64h-768q-64 0 -64 64t64 64h768q64 0 64 -64z" unicode="¯"/><glyph d="M832 960q0 -132 -94 -226t-226 -94t-226 94t-94 226t94 226t226 94t226 -94t94 -226zM704 960q0 79 -56.5 135.5t-135.5 56.5t-135.5 -56.5t-56.5 -135.5t56.5 -135.5t135.5 -56.5t135.5 56.5t56.5 135.5z" unicode="°"/><glyph d="M960 704q0 -64 -64 -64h-320v-320q0 -64 -64 -64t-64 64v320h-320q-64 0 -64 64t64 64h320v320q0 64 64 64t64 -64v-320h320q64 0 64 -64zM960 64q0 -64 -64 -64h-768q-64 0 -64 64t64 64h768q64 0 64 -64z" unicode="±"/><glyph d="M816 544q0 -65 -64 -64h-480q-74 0 -74 57q0 30 37 59q40 20 115 59q338 183 338 337q0 69 -54 116q-52 44 -122 44t-122 -44q-54 -48 -54 -116q0 -63 -64 -64q-64 0 -64 64q0 122 92 206q90 82 212 82q123 0 212 -82q91 -84 92 -206q0 -130 -118 -231 q-113 -77 -224 -153h278q64 -1 64 -64z" unicode="²"/><glyph d="M831 1225q0 -31 -31 -58l-242 -206q113 -21 189 -106.5t76 -198.5q0 -131 -99 -223q-96 -88 -230 -87q-83 0 -161 41q-84 43 -121 112q-11 20 -11 35q0 26 20 44.5t47 18.5q20 0 79.5 -61.5t146.5 -61.5q79 0 140 52t61 130t-63 132q-59 50 -138 50q-59 0 -116.5 -36.5 t-72.5 -36.5q-26 0 -45 19t-19 45q0 29 25 50l319 273h-320q-64 0 -64 64t64 64h494q72 0 72 -55z" unicode="³"/><glyph d="M705 1214q0 -38 -36 -55l-256 -128q-15 -8 -31 -8q-26 0 -44.5 20.5t-18.5 46.5q0 38 36 55l256 128q15 8 31 8q26 0 44.5 -20.5t18.5 -46.5z" unicode="´"/><glyph d="M875 64q0 -64 -64 -64q-65 0 -64 86q-102 -86 -235 -86t-235 86v-406q0 -64 -64 -64t-64 64v1152q0 64 64 64t64 -64v-469q0 -97 69 -166t166 -69q96 0 165.5 68.5t69.5 165.5v470q0 64 64 64t64 -64v-768z" unicode="µ"/><glyph d="M917 64q0 -64 -64 -64t-64 64v1088h-256v-1088q0 -64 -64 -64t-64 64v576h-21q-132 0 -226 94t-94 226t94 226t226 94h469q26 0 45 -19t19 -45v-1152zM405 768v384h-21q-79 0 -135.5 -56.5t-56.5 -135.5t56.5 -135.5t135.5 -56.5h21z" unicode="¶"/><glyph d="M609 544q0 -40 -28.5 -68.5t-68.5 -28.5t-68 29q-29 29 -29 68.5t28.5 67t68.5 27.5t68.5 -28t28.5 -67z" unicode="·"/><glyph d="M755 -128q0 -106 -75 -181t-181 -75q-67 0 -128 35q-64 36 -94 94q-9 18 -9 33q0 26 20.5 44.5t46.5 18.5t66.5 -48.5t97.5 -48.5q53 0 90.5 37.5t37.5 90.5t-37.5 90.5t-90.5 37.5q-64 0 -64 64t64 64q106 0 181 -75t75 -181z" unicode="¸"/><glyph d="M736 544.5q0 -64.5 -64 -64.5h-256q-65 0 -64 64q0 49 45 60q15 3 83 4v460l-84 -78q-20 -18 -44 -18q-26 0 -45.5 20t-19.5 46t21 46l184 170q28 26 52 27q65 0 64 -77v-596h19.5h19.5q89 1 89 -63.5z" unicode="¹"/><glyph d="M864 947q0 -141 -106 -238q-103 -95 -246 -95t-246 95q-106 97 -106 238t106 238q103 95 246 95t246 -95q106 -97 106 -238zM864 448q0 -64 -64 -64h-576q-63 0 -64 64q0 64 64 64h576q64 0 64 -64zM736 947q0 88 -69 148q-67 57 -155 57q-89 0 -155 -57 q-68 -60 -69 -148q0 -88 67.5 -146.5t156.5 -58.5t156.5 58.5t67.5 146.5z" unicode="º"/><glyph d="M897 448q0 -14 -12 -37l-188 -376q-18 -36 -55 -36q-26 0 -46.5 18.5t-20.5 44.5q0 15 8 31l177 355l-177 355q-8 15 -8 31q0 26 20.5 44.5t46.5 18.5q38 0 55 -36l188 -376q12 -23 12 -37zM449 448q0 -14 -12 -37l-188 -376q-18 -36 -55 -36q-26 0 -46.5 18.5 t-20.5 44.5q0 15 8 31l177 355l-177 355q-8 15 -8 31q0 26 20.5 44.5t46.5 18.5q38 0 55 -36l188 -376q12 -23 12 -37z" unicode="»"/><glyph d="M432 800.5q0 -64.5 -64 -64.5h-192q-64 0 -64 64.5t96 63.5v426q-49 -62 -78 -62q-26 0 -46.5 19t-20.5 46q0 21 16 40l136 171q26 33 56 33q66 0 65 -76v-597q96 1 96 -63.5zM961 1217q0 -19 -12 -37l-768 -1152q-20 -29 -51 -29q-26 0 -46.5 19.5t-20.5 44.5 q0 19 12 37l768 1152q20 29 51 29q26 0 46.5 -19t20.5 -45zM960 -51q0 -51 -52 -62q-9 -2 -92 -2v-205q0 -64 -64 -64t-64 64v205h-224q-67 0 -67 54q0 19 11 40l287 537q24 44 63 45q58 0 58 -75v-473q9 0 26.5 1t26.5 1q91 0 91 -66zM688 13v218l-117 -218h117z" unicode="¼"/><glyph d="M432 800.5q0 -64.5 -64 -64.5h-192q-64 0 -64 64.5t96 63.5v426q-49 -62 -78 -62q-26 0 -46.5 19t-20.5 46q0 21 16 40l136 171q26 33 56 33q66 0 65 -76v-597q96 1 96 -63.5zM961 1217q0 -19 -12 -37l-768 -1152q-20 -29 -51 -29q-26 0 -46.5 19.5t-20.5 44.5 q0 19 12 37l768 1152q20 29 51 29q26 0 46.5 -19t20.5 -45zM960 256q0 -124 -85 -220l-178 -164h199q64 0 64 -64t-64 -64h-360q-73 0 -73 55q0 38 96 111q141 109 177 148q96 100 96 198q0 57 -29 105q-33 55 -87 55t-87 -55q-29 -48 -29 -105q0 -64 -64 -64t-64 64 q0 112 65 196q71 92 179 92t179 -92q65 -84 65 -196z" unicode="½"/><glyph d="M961 1217q0 -19 -12 -37l-768 -1152q-20 -29 -51 -29q-26 0 -46.5 19.5t-20.5 44.5q0 19 12 37l367 551q-63 -49 -142 -49q-73 0 -137 45.5t-93 114.5q-7 16 -7 29q0 26 20.5 44t47.5 18q31 0 71.5 -61.5t97.5 -61.5q61 0 100 62q33 55 33 120q0 66 -33 120 q-39 63 -100 63q-40 0 -78.5 -37.5t-63.5 -37.5q-26 0 -45.5 19t-19.5 45q0 24 19 45l245 279h-229q-64 0 -64 64t64 64h369q70 0 70 -42q0 -46 -86 -145q-61 -67 -123 -134q94 -25 151 -116q53 -85 52 -187q0 -55 -16 -106l298 446q20 29 51 29q26 0 46.5 -19t20.5 -45z M960 -51q0 -51 -52 -62q-9 -2 -92 -2v-205q0 -64 -64 -64t-64 64v205h-224q-67 0 -67 54q0 19 11 40l287 537q24 44 63 45q58 0 58 -75v-473q9 0 26.5 1t26.5 1q91 0 91 -66zM688 13v218l-117 -218h117z" unicode="¾"/><glyph d="M609 799q0 -40 -28.5 -67.5t-68.5 -27.5t-68.5 27.5t-28.5 67.5t28.5 68.5t68.5 28.5t68.5 -28.5t28.5 -68.5zM960 -64q0 -151 -154 -242q-131 -78 -294 -78q-162 0 -294 78q-154 91 -154 242t154 242q131 78 294 78q116 0 164 65q12 15 12 31q0 20 -24 45 q-50 51 -152 51q-28 0 -69.5 -11t-53.5 -11q-26 0 -44 20t-18 46q0 84 185 84q112 0 201 -55q103 -64 103 -169q0 -106 -103 -169q-89 -55 -201 -55q-211 0 -294 -120q-26 -37 -26 -72t26 -72q84 -120 294 -120q211 0 294 120q26 37 26 72q0 64 64 64t64 -64z" unicode="¿"/><glyph d="M705 1474q0 -26 -18.5 -46.5t-44.5 -20.5q-15 0 -31 8l-256 128q-36 18 -36 55q0 26 18.5 46.5t44.5 20.5q15 0 31 -8l256 -128q36 -17 36 -55zM961 61q0 -61 -67 -61q-44 0 -59 44l-113 340h-420l-113 -340q-15 -44 -59 -44q-67 0 -67 61q0 11 4 23l381 1142 q18 54 64 54t64 -54l381 -1142q4 -12 4 -23zM679 512l-167 502l-167 -502h334z" unicode="À"/><glyph d="M718 1598q0 -38 -36 -55l-256 -128q-15 -8 -31 -8q-26 0 -44.5 20.5t-18.5 46.5q0 38 36 55l256 128q15 8 31 8q26 0 44.5 -20.5t18.5 -46.5zM961 61q0 -61 -67 -61q-44 0 -59 44l-113 340h-420l-113 -340q-15 -44 -59 -44q-67 0 -67 61q0 11 4 23l381 1142q18 54 64 54 t64 -54l381 -1142q4 -12 4 -23zM679 512l-167 502l-167 -502h334z" unicode="Á"/><glyph d="M769 1474q0 -26 -19.5 -46.5t-44.5 -20.5q-19 0 -37 12l-156 104l-156 -104q-18 -12 -37 -12q-26 0 -45 20.5t-19 46.5q0 32 29 51l187 124q23 15 41 16q18 0 41 -16l187 -124q29 -19 29 -51zM961 61q0 -61 -67 -61q-44 0 -59 44l-113 340h-420l-113 -340 q-15 -44 -59 -44q-67 0 -67 61q0 11 4 23l381 1142q18 54 64 54t64 -54l381 -1142q4 -12 4 -23zM679 512l-167 502l-167 -502h334z" unicode="Â"/><glyph d="M846 1539q0 -20 -16 -47q-49 -84 -177 -84q-73 0 -151 64t-105 64q-44 0 -68 -20q-15 -44 -58 -44q-67 0 -67 61q0 20 15 47q49 84 178 84q73 0 150.5 -64t105.5 -64q52 0 73.5 32t52.5 32q67 0 67 -61zM961 61q0 -61 -67 -61q-44 0 -59 44l-113 340h-420l-113 -340 q-15 -44 -59 -44q-67 0 -67 61q0 11 4 23l381 1142q18 54 64 54t64 -54l381 -1142q4 -12 4 -23zM679 512l-167 502l-167 -502h334z" unicode="Ã"/><glyph d="M800 1504q0 -40 -28 -68t-68 -28t-68 28t-28 68t28 68t68 28t68 -28t28 -68zM416 1504q0 -40 -28 -68t-68 -28t-68 28t-28 68t28 68t68 28t68 -28t28 -68zM961 61q0 -61 -67 -61q-44 0 -59 44l-113 340h-420l-113 -340q-15 -44 -59 -44q-67 0 -67 61q0 11 4 23l381 1142 q18 54 64 54t64 -54l381 -1142q4 -12 4 -23zM679 512l-167 502l-167 -502h334z" unicode="Ä"/><glyph d="M698 1477q0 -77 -54.5 -129.5t-131.5 -52.5t-131 52.5t-54 129.5q0 76 54 130.5t131 54.5t131.5 -54.5t54.5 -130.5zM961 61q0 -61 -67 -61q-44 0 -59 44l-113 340h-420l-113 -340q-15 -44 -59 -44q-67 0 -67 61q0 11 4 23l381 1142q18 54 64 54t64 -54l381 -1142 q4 -12 4 -23zM570 1477q0 57 -58 57q-57 0 -57 -57q0 -55 57 -54q58 -1 58 54zM679 512l-167 502l-167 -502h334z" unicode="Å"/><glyph d="M960 640q0 -64 -64 -64h-243v-448h243q64 0 64 -64t-64 -64h-307q-64 0 -64 64v320h-200l-137 -344q-16 -41 -58 -41q-26 0 -46.5 18.5t-20.5 43.5q0 13 5 27l459 1145q9 21 19 32l-3 -3q20 19 44 19l309 -1q64 0 64 -64t-64 -64h-243v-448h243q64 0 64 -64zM552 1270 q-2 -1 -6 -5zM543 1262zM525 512v372l-149 -372h149z" unicode="Æ"/><glyph d="M961 233q0 -41 -77 -108q-63 -54 -117 -81q67 -73 67 -172q0 -106 -75 -181t-181 -75q-151 0 -222 129q-9 17 -10 33q0 26 20.5 44.5t47.5 18.5q25 0 66 -48.5t98 -48.5q53 0 90.5 37.5t37.5 90.5t-37.5 90.5t-90.5 37.5q-231 0 -381 210q-133 189 -133 430t133 430 q149 210 381 210q105 0 207 -54t161 -139q15 -21 15 -40q0 -26 -20 -45.5t-47 -19.5q-24 0 -48 26q-12 15 -38 42q-101 102 -230 102q-120 0 -220 -93q-89 -83 -132 -207q-34 -100 -34 -212t34 -212q43 -125 132 -207q100 -93 220 -93q130 0 230 102q12 15 38 42 q25 26 48 26q26 0 46.5 -19.5t20.5 -45.5z" unicode="Ç"/><glyph d="M769 1474q0 -26 -18.5 -46.5t-44.5 -20.5q-15 0 -31 8l-256 128q-36 18 -36 55q0 26 18.5 46.5t44.5 20.5q15 0 31 -8l256 -128q36 -17 36 -55zM960 64q0 -64 -64 -64h-683q-26 0 -45 19t-19 45v1152q0 26 19.5 45t44.5 19h683q64 0 64 -64t-64 -64h-619v-448h619 q64 0 64 -64t-64 -64h-619v-448h619q64 0 64 -64z" unicode="È"/><glyph d="M769 1598q0 -38 -36 -55l-256 -128q-15 -8 -31 -8q-26 0 -44.5 20.5t-18.5 46.5q0 38 36 55l256 128q15 8 31 8q26 0 44.5 -20.5t18.5 -46.5zM960 64q0 -64 -64 -64h-683q-26 0 -45 19t-19 45v1152q0 26 19.5 45t44.5 19h683q64 0 64 -64t-64 -64h-619v-448h619 q64 0 64 -64t-64 -64h-619v-448h619q64 0 64 -64z" unicode="É"/><glyph d="M833 1474q0 -26 -19.5 -46.5t-44.5 -20.5q-19 0 -37 12l-156 104l-156 -104q-18 -12 -37 -12q-26 0 -45 20.5t-19 46.5q0 32 29 51l187 124q23 15 41 16q18 0 41 -16l187 -124q29 -19 29 -51zM960 64q0 -64 -64 -64h-683q-26 0 -45 19t-19 45v1152q0 26 19.5 45t44.5 19 h683q64 0 64 -64t-64 -64h-619v-448h619q64 0 64 -64t-64 -64h-619v-448h619q64 0 64 -64z" unicode="Ê"/><glyph d="M864 1504q0 -40 -28.5 -68t-68.5 -28q-39 0 -67 28t-28 68t28 68t67 28q40 0 68.5 -28t28.5 -68zM480 1504q0 -40 -28.5 -68t-68.5 -28q-39 0 -67 28t-28 68t28 68t67 28q40 0 68.5 -28t28.5 -68zM960 64q0 -64 -64 -64h-683q-26 0 -45 19t-19 45v1152q0 26 19.5 45 t44.5 19h683q64 0 64 -64t-64 -64h-619v-448h619q64 0 64 -64t-64 -64h-619v-448h619q64 0 64 -64z" unicode="Ë"/><glyph d="M705 1474q0 -26 -18.5 -46.5t-44.5 -20.5q-15 0 -31 8l-256 128q-36 18 -36 55q0 26 18.5 46.5t44.5 20.5q15 0 31 -8l256 -128q36 -17 36 -55zM832 64q0 -64 -64 -64h-512q-64 0 -64 64t64 64h189v1024h-189q-64 0 -64 64t64 64h512q64 0 64 -64t-64 -64h-195v-1024h195 q64 0 64 -64z" unicode="Ì"/><glyph d="M705 1598q0 -38 -36 -55l-256 -128q-15 -8 -31 -8q-26 0 -44.5 20.5t-18.5 46.5q0 38 36 55l256 128q15 8 31 8q26 0 44.5 -20.5t18.5 -46.5zM832 64q0 -64 -64 -64h-512q-64 0 -64 64t64 64h189v1024h-189q-64 0 -64 64t64 64h512q64 0 64 -64t-64 -64h-195v-1024h195 q64 0 64 -64z" unicode="Í"/><glyph d="M769 1474q0 -26 -19.5 -46.5t-44.5 -20.5q-19 0 -37 12l-156 104l-156 -104q-18 -12 -37 -12q-26 0 -45 20.5t-19 46.5q0 32 29 51l187 124q23 15 41 16q18 0 41 -16l187 -124q29 -19 29 -51zM832 64q0 -64 -64 -64h-512q-64 0 -64 64t64 64h192v1024h-192q-64 0 -64 64 t64 64h512q64 0 64 -64t-64 -64h-192v-1024h192q64 0 64 -64z" unicode="Î"/><glyph d="M800 1504q0 -40 -28.5 -68t-67.5 -28q-40 0 -68 28t-28 68t28 68t68 28q39 0 67.5 -28t28.5 -68zM416 1504q0 -40 -28.5 -68t-67.5 -28q-40 0 -68 28t-28 68t28 68t68 28q39 0 67.5 -28t28.5 -68zM832 64q0 -64 -64 -64h-512q-64 0 -64 64t64 64h192v1024h-192 q-64 0 -64 64t64 64h512q64 0 64 -64t-64 -64h-192v-1024h192q64 0 64 -64z" unicode="Ï"/><glyph d="M960 640q0 -265 -187.5 -452.5t-452.5 -187.5q-26 0 -45 19t-19 45v512h-128q-64 0 -64 64t64 64h128v512q0 26 19 45t45 19q265 0 452.5 -187.5t187.5 -452.5zM832 640q0 193 -128 338.5t-320 169.5v-444h128q64 0 64 -64t-64 -64h-128v-444q192 24 320 169.5t128 338.5 z" unicode="Ð"/><glyph d="M833 1539q0 -20 -16 -47q-49 -84 -177 -84q-73 0 -151 64t-105 64q-44 0 -67 -20q-15 -44 -59 -44q-67 0 -67 61q0 20 16 47q49 84 177 84q73 0 151 -64t105 -64q52 0 74 32t52 32q67 0 67 -61zM876 63q0 -64 -67 -64q-37 0 -59 44l-473 910v-889q0 -64 -64 -64t-64 64 l-1 1153q0 64 67 64q37 0 59 -44l473 -910v889q0 64 64 64t64 -64z" unicode="Ñ"/><glyph d="M718 1474q0 -26 -18.5 -46.5t-44.5 -20.5q-15 0 -31 8l-256 128q-36 18 -36 55q0 26 18.5 46.5t44.5 20.5q15 0 31 -8l256 -128q36 -17 36 -55zM960 640q0 -230 -108 -417q-128 -223 -340 -223t-340 223q-108 188 -108 417q0 230 108 417q128 223 340 223t340 -223 q108 -187 108 -417zM832 640q0 112 -28 210q-33 116 -103 200q-85 102 -189 102t-189 -102q-69 -84 -103 -200q-28 -98 -28 -210t28 -210q33 -116 103 -200q85 -102 189 -102t189 102q69 84 103 200q28 98 28 210z" unicode="Ò"/><glyph d="M718 1598q0 -38 -36 -55l-256 -128q-15 -8 -31 -8q-26 0 -44.5 20.5t-18.5 46.5q0 38 36 55l256 128q15 8 31 8q26 0 44.5 -20.5t18.5 -46.5zM960 640q0 -230 -108 -417q-128 -223 -340 -223t-340 223q-108 188 -108 417q0 230 108 417q128 223 340 223t340 -223 q108 -187 108 -417zM832 640q0 112 -28 210q-33 116 -103 200q-85 102 -189 102t-189 -102q-69 -84 -103 -200q-28 -98 -28 -210t28 -210q33 -116 103 -200q85 -102 189 -102t189 102q69 84 103 200q28 98 28 210z" unicode="Ó"/><glyph d="M769 1474q0 -26 -19.5 -46.5t-44.5 -20.5q-19 0 -37 12l-156 104l-156 -104q-18 -12 -37 -12q-26 0 -45 20.5t-19 46.5q0 32 29 51l187 124q23 15 41 16q18 0 41 -16l187 -124q29 -19 29 -51zM960 640q0 -230 -108 -417q-128 -223 -340 -223t-340 223q-108 188 -108 417 q0 230 108 417q128 223 340 223t340 -223q108 -187 108 -417zM832 640q0 112 -28 210q-33 116 -103 200q-85 102 -189 102t-189 -102q-69 -84 -103 -200q-28 -98 -28 -210t28 -210q33 -116 103 -200q85 -102 189 -102t189 102q69 84 103 200q28 98 28 210z" unicode="Ô"/><glyph d="M846 1539q0 -20 -16 -47q-49 -84 -177 -84q-73 0 -151 64t-105 64q-44 0 -68 -20q-15 -44 -58 -44q-67 0 -67 61q0 20 15 47q49 84 178 84q73 0 150.5 -64t105.5 -64q52 0 73.5 32t52.5 32q67 0 67 -61zM960 640q0 -230 -108 -417q-128 -223 -340 -223t-340 223 q-108 188 -108 417q0 230 108 417q128 223 340 223t340 -223q108 -187 108 -417zM832 640q0 112 -28 210q-33 116 -103 200q-85 102 -189 102t-189 -102q-69 -84 -103 -200q-28 -98 -28 -210t28 -210q33 -116 103 -200q85 -102 189 -102t189 102q69 84 103 200q28 98 28 210 z" unicode="Õ"/><glyph d="M800 1504q0 -40 -28 -68t-68 -28t-68 28t-28 68t28 68t68 28t68 -28t28 -68zM416 1504q0 -40 -28 -68t-68 -28t-68 28t-28 68t28 68t68 28t68 -28t28 -68zM960 640q0 -230 -108 -417q-128 -223 -340 -223t-340 223q-108 188 -108 417q0 230 108 417q128 223 340 223 t340 -223q108 -187 108 -417zM832 640q0 112 -28 210q-33 116 -103 200q-85 102 -189 102t-189 -102q-69 -84 -103 -200q-28 -98 -28 -210t28 -210q33 -116 103 -200q85 -102 189 -102t189 102q69 84 103 200q28 98 28 210z" unicode="Ö"/><glyph d="M849 177q0 -26 -20 -46t-46 -20t-45 20l-226 227l-226 -227q-20 -20 -45 -20q-26 0 -46 20t-20 46t20 45l227 226l-227 226q-20 20 -20 45q0 26 20 46t46 20t45 -20l226 -227l226 227q20 20 45 20q26 0 46 -20t20 -46t-20 -45l-227 -226l227 -226q20 -19 20 -45z" unicode="×"/><glyph d="M961 1217q0 -21 -102 -172q101 -178 101 -405q0 -230 -108 -417q-128 -223 -340 -223q-151 0 -267 124l-64 -96q-20 -29 -51 -29q-26 0 -46.5 19t-20.5 45q0 21 102 172q-101 178 -101 405q0 230 108 417q128 223 340 223q151 0 267 -124l64 96q20 29 51 29 q26 0 46.5 -19t20.5 -45zM705 1045q-88 107 -193 107q-101 0 -184 -96q-68 -80 -104 -192q-32 -104 -32 -224q0 -157 54 -283zM832 640q0 157 -54 283l-459 -688q88 -107 193 -107q101 0 184 97q68 80 104 191q33 105 32 224z" unicode="Ø"/><glyph d="M705 1474q0 -26 -18.5 -46.5t-44.5 -20.5q-15 0 -31 8l-256 128q-36 18 -36 55q0 26 18.5 46.5t44.5 20.5q15 0 31 -8l256 -128q36 -17 36 -55zM917 405q0 -168 -118.5 -286.5t-286.5 -118.5t-286.5 118.5t-118.5 286.5v811q0 64 64 64t64 -64v-811q0 -114 81.5 -195.5 t195.5 -81.5t195.5 81.5t81.5 195.5v811q0 64 64 64t64 -64v-811z" unicode="Ù"/><glyph d="M705 1598q0 -38 -36 -55l-256 -128q-15 -8 -31 -8q-26 0 -44.5 20.5t-18.5 46.5q0 38 36 55l256 128q15 8 31 8q26 0 44.5 -20.5t18.5 -46.5zM917 405q0 -168 -118.5 -286.5t-286.5 -118.5t-286.5 118.5t-118.5 286.5v811q0 64 64 64t64 -64v-811q0 -114 81.5 -195.5 t195.5 -81.5t195.5 81.5t81.5 195.5v811q0 64 64 64t64 -64v-811z" unicode="Ú"/><glyph d="M769 1474q0 -26 -19.5 -46.5t-44.5 -20.5q-19 0 -37 12l-156 104l-156 -104q-18 -12 -37 -12q-26 0 -45 20.5t-19 46.5q0 32 29 51l187 124q23 15 41 16q18 0 41 -16l187 -124q29 -19 29 -51zM917 405q0 -168 -118.5 -286.5t-286.5 -118.5t-286.5 118.5t-118.5 286.5v811 q0 64 64 64t64 -64v-811q0 -114 81.5 -195.5t195.5 -81.5t195.5 81.5t81.5 195.5v811q0 64 64 64t64 -64v-811z" unicode="Û"/><glyph d="M800 1504q0 -40 -28 -68t-68 -28t-68 28t-28 68t28 68t68 28t68 -28t28 -68zM416 1504q0 -40 -28 -68t-68 -28t-68 28t-28 68t28 68t68 28t68 -28t28 -68zM917 405q0 -168 -118.5 -286.5t-286.5 -118.5t-286.5 118.5t-118.5 286.5v811q0 64 64 64t64 -64v-811 q0 -114 81.5 -195.5t195.5 -81.5t195.5 81.5t81.5 195.5v811q0 64 64 64t64 -64v-811z" unicode="Ü"/><glyph d="M705 1598q0 -38 -36 -55l-256 -128q-15 -8 -31 -8q-26 0 -44.5 20.5t-18.5 46.5q0 38 36 55l256 128q15 8 31 8q26 0 44.5 -20.5t18.5 -46.5zM961 1217q0 -19 -12 -37l-373 -560v-556q0 -64 -64 -64t-64 64v556l-373 560q-12 18 -12 37q0 26 20.5 45t46.5 19q32 0 51 -29 l331 -497l331 497q20 29 51 29q26 0 46.5 -19t20.5 -45z" unicode="Ý"/><glyph d="M960 640q0 -185 -131.5 -316.5t-316.5 -131.5h-235v-128q0 -64 -64 -64t-64 64v1152q0 64 64 64t64 -64v-128h235q185 0 316.5 -131.5t131.5 -316.5zM832 640q0 132 -94 226t-226 94h-235v-640h235q132 0 226 94t94 226z" unicode="Þ"/><glyph d="M960 288.5q0 -118.5 -84 -203.5t-204 -85q-90 0 -164 51t-105 134q-5 14 -5 26q0 26 20.5 44t46.5 18q30 0 55 -37q40 -61 49 -70q40 -38 103 -38q66 0 113 47t47 113t-47 113q-46 47 -113 47q-93 0 -158 66q-66 67 -66 158q0 93 82.5 169.5t82.5 154.5q0 65 -46 110.5 t-110 45.5q-75 0 -128.5 -53.5t-53.5 -128.5v-906q0 -64 -64 -64t-64 64v906q0 128 91 219t219 91q117 0 200.5 -83t83.5 -201q0 -144 -120 -243q-45 -36 -45 -81q0 -40 28 -68q29 -28 68 -28q119 0 203.5 -84.5t84.5 -203z" unicode="ß"/><glyph d="M684 1090q0 -26 -18.5 -46.5t-45.5 -20.5q-15 0 -30 8l-256 128q-36 18 -36 55q0 26 18.5 46.5t44.5 20.5q15 0 31 -8l256 -128q36 -17 36 -55zM917 64q0 -64 -64 -64q-66 0 -64 90q-126 -90 -298 -90q-158 0 -283 79q-144 92 -144 241q0 148 144 241q125 79 283 79 q172 0 298 -90v26q0 38 -26 76q-79 116 -272 116q-111 0 -220 -63q-22 -13 -38 -13q-26 0 -45 20t-19 47q0 62 134 105q104 32 188 32q157 0 282 -79q144 -92 144 -241v-512zM789 320q0 61 -58 112q-49 43 -115 62q-58 18 -125 18q-198 0 -276 -121q-23 -36 -23 -71t23 -71 q78 -121 276 -121q67 0 125 18q67 20 115 62q58 51 58 112z" unicode="à"/><glyph d="M684 1214q0 -38 -36 -55l-256 -128q-15 -8 -31 -8q-26 0 -44.5 20.5t-18.5 46.5q0 38 36 55l256 128q15 8 30 8q26 0 45 -20.5t19 -46.5zM917 64q0 -64 -64 -64q-66 0 -64 90q-126 -90 -298 -90q-158 0 -283 79q-144 92 -144 241q0 148 144 241q125 79 283 79 q172 0 298 -90v26q0 38 -26 76q-79 116 -272 116q-111 0 -220 -63q-22 -13 -38 -13q-26 0 -45 20t-19 47q0 62 134 105q104 32 188 32q157 0 282 -79q144 -92 144 -241v-512zM789 320q0 61 -58 112q-49 43 -115 62q-58 18 -125 18q-198 0 -276 -121q-23 -36 -23 -71t23 -71 q78 -121 276 -121q67 0 125 18q67 20 115 62q58 51 58 112z" unicode="á"/><glyph d="M748 1090q0 -26 -19.5 -46.5t-44.5 -20.5q-19 0 -37 12l-156 104l-156 -104q-18 -12 -37 -12q-26 0 -45 20.5t-19 46.5q0 32 29 51l187 124q23 15 41 16q18 0 41 -16l187 -124q29 -19 29 -51zM917 64q0 -64 -64 -64q-66 0 -64 90q-126 -90 -298 -90q-158 0 -283 79 q-144 92 -144 241q0 148 144 241q125 79 283 79q172 0 298 -90v26q0 38 -26 76q-79 116 -272 116q-111 0 -220 -63q-22 -13 -38 -13q-26 0 -45 20t-19 47q0 62 134 105q104 32 188 32q157 0 282 -79q144 -92 144 -241v-512zM789 320q0 61 -58 112q-49 43 -115 62 q-58 18 -125 18q-198 0 -276 -121q-23 -36 -23 -71t23 -71q78 -121 276 -121q67 0 125 18q67 20 115 62q58 51 58 112z" unicode="â"/><glyph d="M812 1155q0 -20 -16 -47q-49 -84 -177 -84q-73 0 -151 64t-105 64q-44 0 -68 -20q-15 -44 -59 -44q-67 0 -66 61q0 20 15 47q49 84 178 84q73 0 150.5 -64t105.5 -64q52 0 73.5 32t52.5 32q67 0 67 -61zM917 64q0 -64 -64 -64q-66 0 -64 90q-126 -90 -298 -90 q-158 0 -283 79q-144 92 -144 241q0 148 144 241q125 79 283 79q172 0 298 -90v26q0 38 -26 76q-79 116 -272 116q-111 0 -220 -63q-22 -13 -38 -13q-26 0 -45 20t-19 47q0 62 134 105q104 32 188 32q157 0 282 -79q144 -92 144 -241v-512zM789 320q0 61 -58 112 q-49 43 -115 62q-58 18 -125 18q-198 0 -276 -121q-23 -36 -23 -71t23 -71q78 -121 276 -121q67 0 125 18q67 20 115 62q58 51 58 112z" unicode="ã"/><glyph d="M779 1120q0 -40 -28.5 -68t-67.5 -28q-40 0 -68 28t-28 68t28 68t67.5 28t68 -28t28.5 -68zM395 1120q0 -40 -28.5 -68t-67.5 -28q-40 0 -68 28t-28 68t28 68t67.5 28t68 -28t28.5 -68zM917 64q0 -64 -64 -64q-66 0 -64 90q-126 -90 -298 -90q-158 0 -283 79 q-144 92 -144 241q0 148 144 241q125 79 283 79q172 0 298 -90v26q0 38 -26 76q-79 116 -272 116q-111 0 -220 -63q-22 -13 -38 -13q-26 0 -45 20t-19 47q0 62 134 105q104 32 188 32q157 0 282 -79q144 -92 144 -241v-512zM789 320q0 61 -58 112q-49 43 -115 62 q-58 18 -125 18q-198 0 -276 -121q-23 -36 -23 -71t23 -71q78 -121 276 -121q67 0 125 18q67 20 115 62q58 51 58 112z" unicode="ä"/><glyph d="M677 1119q0 -77 -55 -130t-131 -53q-77 0 -131.5 53t-54.5 130q0 76 54.5 130.5t131.5 54.5t131.5 -54.5t54.5 -130.5zM917 64q0 -64 -64 -64q-66 0 -64 90q-126 -90 -298 -90q-158 0 -283 79q-144 92 -144 241q0 148 144 241q125 79 283 79q172 0 298 -90v26 q0 38 -26 76q-79 116 -272 116q-111 0 -220 -63q-22 -13 -38 -13q-26 0 -45 20t-19 47q0 62 134 105q104 32 188 32q157 0 282 -79q144 -92 144 -241v-512zM549 1119q0 57 -58 57q-57 0 -58 -57q0 -55 58 -55t58 55zM789 320q0 61 -58 112q-49 43 -115 62q-58 18 -125 18 q-198 0 -276 -121q-23 -36 -23 -71t23 -71q78 -121 276 -121q67 0 125 18q67 20 115 62q58 51 58 112z" unicode="å"/><glyph d="M961 647q0 -28 -18 -51q-49 -53 -144 -159q-58 -69 -183 -199q41 -110 102 -110q56 0 117 147q19 45 59 45q67 0 67 -61q0 -10 -4 -22q-28 -95 -84 -159q-68 -78 -155 -78q-119 0 -192 129q-75 -129 -206 -129q-116 0 -190 105q-66 94 -66 215t66 215q74 105 190 105 q70 0 127 -41q-4 60 -36 109q-38 60 -91 60q-38 0 -73.5 -38t-60.5 -38q-26 0 -46.5 19t-20.5 45q0 18 14 39q67 101 187 101q131 0 206 -129q75 129 192 129q77 0 160 -86t83 -163zM823 655q-45 113 -105 113q-24 0 -52 -28q-90 -90 -90 -292q0 -24 3 -55zM448 320 q0 66 -31 123q-38 69 -97 69q-60 0 -97 -69q-31 -57 -31 -123t31 -123q38 -69 97 -69q60 0 97 69q31 57 31 123z" unicode="æ"/><glyph d="M961 721q0 -26 -19.5 -46t-45.5 -20q-18 0 -42 16q-138 97 -276 97q-147 0 -261 -85q-125 -93 -125 -235t125 -235q114 -85 261 -85q138 0 276 96q23 16 41 17q26 0 46 -20t20 -46q0 -73 -185 -141q58 -71 58 -162q0 -106 -75 -181t-181 -75q-151 0 -222 129 q-9 17 -10 33q0 26 20.5 44.5t47.5 18.5q26 0 66.5 -48.5t97.5 -48.5q53 0 90.5 37.5t37.5 90.5t-37.5 90.5t-90.5 37.5q-201 0 -352 122q-162 130 -162 326t162 326q151 122 352 122q94 0 192 -32q110 -36 168 -96q23 -24 23 -47z" unicode="ç"/><glyph d="M732 1090q0 -26 -18.5 -46.5t-43.5 -20.5q-15 0 -31 8l-256 128q-36 18 -36 55q0 26 18.5 46.5t44.5 20.5q15 0 30 -8l256 -128q36 -17 36 -55zM961 257q0 -16 -10 -35q-59 -102 -177 -163q-112 -59 -235 -59q-192 0 -331 127q-144 131 -144 321t144 321q139 127 331 127 q70 0 146 -25q85 -28 170 -89q105 -77 105 -146q0 -34 -33 -52l-647 -348q105 -108 259 -108q165 0 267 114q12 15 36 47t52 32q26 0 46.5 -19t20.5 -45zM800 660q-104 108 -261 108q-138 0 -240 -90q-107 -94 -107 -230q0 -55 19 -104z" unicode="è"/><glyph d="M732 1214q0 -38 -36 -55l-256 -128q-15 -8 -30 -8q-26 0 -44.5 20.5t-18.5 46.5q0 38 36 55l256 128q15 8 31 8q26 0 44 -20.5t18 -46.5zM961 257q0 -16 -10 -35q-59 -102 -177 -163q-112 -59 -235 -59q-192 0 -331 127q-144 131 -144 321t144 321q139 127 331 127 q70 0 146 -25q85 -28 170 -89q105 -77 105 -146q0 -34 -33 -52l-647 -348q105 -108 259 -108q165 0 267 114q12 15 36 47t52 32q26 0 46.5 -19t20.5 -45zM800 660q-104 108 -261 108q-138 0 -240 -90q-107 -94 -107 -230q0 -55 19 -104z" unicode="é"/><glyph d="M796 1090q0 -26 -18.5 -46.5t-44.5 -20.5q-19 0 -37 12l-157 104l-156 -104q-18 -12 -37 -12q-26 0 -45 20.5t-19 46.5q0 32 30 51l187 124q23 15 40 16q18 0 41 -16l187 -124q29 -19 29 -51zM961 257q0 -16 -10 -35q-59 -102 -177 -163q-112 -59 -235 -59 q-192 0 -331 127q-144 131 -144 321t144 321q139 127 331 127q70 0 146 -25q85 -28 170 -89q105 -77 105 -146q0 -34 -33 -52l-647 -348q105 -108 259 -108q165 0 267 114q12 15 36 47t52 32q26 0 46.5 -19t20.5 -45zM800 660q-104 108 -261 108q-138 0 -240 -90 q-107 -94 -107 -230q0 -55 19 -104z" unicode="ê"/><glyph d="M828 1120q0 -40 -28.5 -68t-68.5 -28t-67.5 28t-27.5 68t27.5 68t67.5 28t68.5 -28t28.5 -68zM444 1120q0 -40 -28.5 -68t-68.5 -28t-67.5 28t-27.5 68t27.5 68t67.5 28t68.5 -28t28.5 -68zM961 257q0 -16 -10 -35q-59 -102 -177 -163q-112 -59 -235 -59q-192 0 -331 127 q-144 131 -144 321t144 321q139 127 331 127q70 0 146 -25q85 -28 170 -89q105 -77 105 -146q0 -34 -33 -52l-647 -348q105 -108 259 -108q165 0 267 114q12 15 36 47t52 32q26 0 46.5 -19t20.5 -45zM800 660q-104 108 -261 108q-138 0 -240 -90q-107 -94 -107 -230 q0 -55 19 -104z" unicode="ë"/><glyph d="M705 1090q0 -26 -18.5 -46.5t-44.5 -20.5q-15 0 -31 8l-256 128q-36 18 -36 55q0 26 18.5 46.5t44.5 20.5q15 0 31 -8l256 -128q36 -17 36 -55zM832 64q0 -64 -64 -64h-256q-64 0 -64 64v704h-192q-64 0 -64 64t64 64h257q63 0 63 -64v-704h192q64 0 64 -64z" unicode="ì"/><glyph d="M705 1214q0 -38 -36 -55l-256 -128q-15 -8 -31 -8q-26 0 -44.5 20.5t-18.5 46.5q0 38 36 55l256 128q15 8 31 8q26 0 44.5 -20.5t18.5 -46.5zM832 64q0 -64 -64 -64h-256q-64 0 -64 64v704h-192q-64 0 -64 64t64 64h257q63 0 63 -64v-704h192q64 0 64 -64z" unicode="í"/><glyph d="M769 1090q0 -26 -19.5 -46.5t-44.5 -20.5q-19 0 -37 12l-156 104l-156 -104q-18 -12 -37 -12q-26 0 -45 20.5t-19 46.5q0 32 29 51l187 124q23 15 41 16q18 0 41 -16l187 -124q29 -19 29 -51zM832 64q0 -64 -64 -64h-256q-64 0 -64 64v704h-192q-64 0 -64 64t64 64h257 q63 0 63 -64v-704h192q64 0 64 -64z" unicode="î"/><glyph d="M800 1120q0 -40 -28.5 -68t-68.5 -28q-39 0 -67 28t-28 68t28 68t67 28q40 0 68.5 -28t28.5 -68zM416 1120q0 -40 -28.5 -68t-68.5 -28q-39 0 -67 28t-28 68t28 68t67 28q41 0 69 -28t28 -68zM832 64q0 -64 -64 -64h-256q-65 0 -65 64l1 704h-192q-64 0 -64 64t64 64h256 q64 0 64 -72v-696h192q64 0 64 -64z" unicode="ï"/><glyph d="M960 448q0 -185 -131.5 -316.5t-316.5 -131.5t-316.5 131.5t-131.5 316.5q0 186 134 319.5t320 128.5l-129 128h-197q-64 0 -64 64q0 49 47 61q16 4 86 3q-38 34 -38 63q0 26 19 46q20 20 46 20q25 0 45 -20l109 -109h390q64 0 64 -64t-64 -64h-261l264 -264 q125 -125 125 -312zM832 448q0 132 -94 226t-226 94t-226 -94t-94 -226t94 -226t226 -94t226 94t94 226z" unicode="ð"/><glyph d="M854 1155q0 -20 -15 -47q-49 -84 -178 -84q-73 0 -150.5 64t-105.5 64q-44 0 -67 -20q-15 -44 -59 -44q-67 0 -67 61q0 20 16 47q49 84 177 84q73 0 151 -64t105 -64q52 0 74 32t53 32q66 0 66 -61zM917 64q0 -64 -64 -64t-64 64v448q0 106 -75 181t-181 75t-181 -75 t-75 -181v-448q0 -64 -64 -64t-64 64v768q0 64 64 64q65 0 64 -98q109 98 256 98q159 0 271.5 -112.5t112.5 -271.5v-448z" unicode="ñ"/><glyph d="M705 1090q0 -26 -18.5 -46.5t-44.5 -20.5q-15 0 -31 8l-256 128q-36 18 -36 55q0 26 18.5 46.5t44.5 20.5q15 0 31 -8l256 -128q36 -17 36 -55zM960 448q0 -185 -131.5 -316.5t-316.5 -131.5t-316.5 131.5t-131.5 316.5t131.5 316.5t316.5 131.5t316.5 -131.5 t131.5 -316.5zM832 448q0 132 -94 226t-226 94t-226 -94t-94 -226t94 -226t226 -94t226 94t94 226z" unicode="ò"/><glyph d="M705 1214q0 -38 -36 -55l-256 -128q-15 -8 -31 -8q-26 0 -44.5 20.5t-18.5 46.5q0 38 36 55l256 128q15 8 31 8q26 0 44.5 -20.5t18.5 -46.5zM960 448q0 -185 -131.5 -316.5t-316.5 -131.5t-316.5 131.5t-131.5 316.5t131.5 316.5t316.5 131.5t316.5 -131.5t131.5 -316.5 zM832 448q0 132 -94 226t-226 94t-226 -94t-94 -226t94 -226t226 -94t226 94t94 226z" unicode="ó"/><glyph d="M769 1090q0 -26 -19.5 -46.5t-44.5 -20.5q-19 0 -37 12l-156 104l-156 -104q-18 -12 -37 -12q-26 0 -45 20.5t-19 46.5q0 32 29 51l187 124q23 15 41 16q18 0 41 -16l187 -124q29 -19 29 -51zM960 448q0 -185 -131.5 -316.5t-316.5 -131.5t-316.5 131.5t-131.5 316.5 t131.5 316.5t316.5 131.5t316.5 -131.5t131.5 -316.5zM832 448q0 132 -94 226t-226 94t-226 -94t-94 -226t94 -226t226 -94t226 94t94 226z" unicode="ô"/><glyph d="M833 1155q0 -20 -16 -47q-49 -84 -177 -84q-73 0 -151 64t-105 64q-44 0 -67 -20q-15 -44 -59 -44q-67 0 -67 61q0 20 16 47q49 84 177 84q73 0 151 -64t105 -64q52 0 74 32t52 32q67 0 67 -61zM960 448q0 -185 -131.5 -316.5t-316.5 -131.5t-316.5 131.5t-131.5 316.5 t131.5 316.5t316.5 131.5t316.5 -131.5t131.5 -316.5zM832 448q0 132 -94 226t-226 94t-226 -94t-94 -226t94 -226t226 -94t226 94t94 226z" unicode="õ"/><glyph d="M800 1120q0 -40 -28 -68t-68 -28t-68 28t-28 68t28 68t68 28t68 -28t28 -68zM416 1120q0 -40 -28 -68t-68 -28t-68 28t-28 68t28 68t68 28t68 -28t28 -68zM960 448q0 -185 -131.5 -316.5t-316.5 -131.5t-316.5 131.5t-131.5 316.5t131.5 316.5t316.5 131.5t316.5 -131.5 t131.5 -316.5zM832 448q0 132 -94 226t-226 94t-226 -94t-94 -226t94 -226t226 -94t226 94t94 226z" unicode="ö"/><glyph d="M609 898q0 -40 -28.5 -69t-68.5 -29t-68.5 29t-28.5 69q0 39 28.5 66.5t68.5 27.5t68.5 -27.5t28.5 -66.5zM832 544q0 -65 -64 -64h-512q-64 0 -64 64q0 63 64 64h512q64 -1 64 -64zM609 194q0 -40 -28.5 -69t-68.5 -29t-68.5 29t-28.5 69q0 39 28.5 66.5t68.5 27.5 t68.5 -27.5t28.5 -66.5z" unicode="÷"/><glyph d="M961 831q0 -27 -91 -115q90 -119 90 -268q0 -185 -131.5 -316.5t-316.5 -131.5q-149 0 -268 90q-88 -90 -115 -91q-26 0 -46 19.5t-20 46.5t91 115q-90 119 -90 268q0 185 131.5 316.5t316.5 131.5q149 0 268 -90q88 90 115 91q26 0 46 -20t20 -46zM689 715 q-80 53 -177 53q-132 0 -226 -94t-94 -226q0 -96 53 -177zM832 448q0 96 -53 177l-444 -444q80 -53 177 -53q132 0 226 94t94 226z" unicode="ø"/><glyph d="M705 1090q0 -26 -18.5 -46.5t-44.5 -20.5q-15 0 -31 8l-256 128q-36 18 -36 55q0 26 18.5 46.5t44.5 20.5q15 0 31 -8l256 -128q36 -17 36 -55zM917 405q0 -168 -118.5 -286.5t-286.5 -118.5t-286.5 118.5t-118.5 286.5v427q0 64 64 64t64 -64v-427q0 -114 81.5 -195.5 t195.5 -81.5t195.5 81.5t81.5 195.5v427q0 64 64 64t64 -64v-427z" unicode="ù"/><glyph d="M705 1214q0 -38 -36 -55l-256 -128q-15 -8 -31 -8q-26 0 -44.5 20.5t-18.5 46.5q0 38 36 55l256 128q15 8 31 8q26 0 44.5 -20.5t18.5 -46.5zM917 405q0 -168 -118.5 -286.5t-286.5 -118.5t-286.5 118.5t-118.5 286.5v427q0 64 64 64t64 -64v-427q0 -114 81.5 -195.5 t195.5 -81.5t195.5 81.5t81.5 195.5v427q0 64 64 64t64 -64v-427z" unicode="ú"/><glyph d="M769 1090q0 -26 -19.5 -46.5t-44.5 -20.5q-19 0 -37 12l-156 104l-156 -104q-18 -12 -37 -12q-26 0 -45 20.5t-19 46.5q0 32 29 51l187 124q23 15 41 16q18 0 41 -16l187 -124q29 -19 29 -51zM917 405q0 -168 -118.5 -286.5t-286.5 -118.5t-286.5 118.5t-118.5 286.5v427 q0 64 64 64t64 -64v-427q0 -114 81.5 -195.5t195.5 -81.5t195.5 81.5t81.5 195.5v427q0 64 64 64t64 -64v-427z" unicode="û"/><glyph d="M800 1120q0 -40 -28 -68t-68 -28t-68 28t-28 68t28 68t68 28t68 -28t28 -68zM416 1120q0 -40 -28 -68t-68 -28t-68 28t-28 68t28 68t68 28t68 -28t28 -68zM917 405q0 -168 -118.5 -286.5t-286.5 -118.5t-286.5 118.5t-118.5 286.5v427q0 64 64 64t64 -64v-427 q0 -114 81.5 -195.5t195.5 -81.5t195.5 81.5t81.5 195.5v427q0 64 64 64t64 -64v-427z" unicode="ü"/><glyph d="M684 1214q0 -38 -36 -55l-256 -128q-15 -8 -31 -8q-26 0 -44.5 20.5t-18.5 46.5q0 38 36 55l256 128q15 8 30 8q26 0 45 -20.5t19 -46.5zM875 832v-832q0 -159 -113 -271.5t-271 -112.5q-101 0 -191 51q-94 53 -141 139q-9 18 -10 34q0 26 20.5 45t46.5 19q29 0 54 -33 q96 -127 221 -127q106 0 181 75t75 181v98q-109 -98 -256 -98q-159 0 -271.5 112.5t-112.5 271.5v448q0 64 64 64t64 -64v-448q0 -106 75 -181t181 -75t181 75t75 180v449q0 64 64 64t64 -64z" unicode="ý"/><glyph d="M960 448q0 -177 -113 -310q-118 -138 -292 -138q-161 0 -278 121v-441q0 -64 -64 -64t-64 64v1536q0 64 64 64t64 -64v-441q116 121 278 121q175 0 292 -138q113 -133 113 -310zM832 448q0 125 -75 218q-81 102 -202 102t-203 -102q-75 -94 -75 -218q-1 -125 75 -218 q81 -102 203 -102q121 0 202 102q75 93 75 218z" unicode="þ"/><glyph d="M779 1109q0 -40 -28 -68t-68 -28t-68 28t-28 68t28 68t68 28t68 -28t28 -68zM395 1109q0 -40 -28 -68t-68 -28t-68 28t-28 68t28 68t68 28t68 -28t28 -68zM875 832v-832q0 -159 -113 -271.5t-271 -112.5q-101 0 -191 51q-94 53 -141 139q-9 18 -10 34q0 26 20.5 45 t46.5 19q29 0 54 -33q96 -127 221 -127q106 0 181 75t75 181v98q-109 -98 -256 -98q-159 0 -271.5 112.5t-112.5 271.5v448q0 64 64 64t64 -64v-448q0 -106 75 -181t181 -75t181 75t75 180v449q0 64 64 64t64 -64z" unicode="ÿ"/><glyph d="M960 64q0 -64 -64 -64h-384q-212 0 -340 223q-108 188 -108 417q0 230 108 417q128 223 340 223h384q64 0 64 -64t-64 -64h-113q177 -193 177 -512q0 -318 -177 -512h113q64 0 64 -64zM832 640q0 155 -59 292q-70 165 -197 209v-437h192q64 0 64 -64t-64 -64h-192v-437 q128 44 198 208q58 136 58 293zM448 139v1002q-128 -45 -198 -209q-58 -135 -58 -292t58 -292q70 -164 198 -209z" unicode="Œ"/><glyph d="M961 648q0 -26 -17 -51q-44 -49 -129 -146q-60 -73 -188 -211q38 -112 97 -112q38 0 70 56q4 7 41 90q20 46 59 46q67 0 67 -61q0 -10 -4 -22q-70 -237 -233 -237q-126 0 -198 149q-74 -149 -199 -149q-133 0 -207 166q-56 129 -56 282q0 154 56 282q73 166 207 166 q125 0 199 -149q73 149 198 149q75 0 156 -86t81 -162zM823 655q-44 113 -99 113q-19 0 -42 -22q-92 -85 -92 -298q0 -21 2 -50zM462 448q0 199 -85 290q-28 30 -50 30q-19 0 -43 -22q-92 -85 -92 -298q0 -212 92 -298q24 -22 43 -22q22 0 50 30q85 91 85 290z" unicode="œ"/><glyph d="M800 1504q0 -40 -28.5 -68t-67.5 -28q-40 0 -68 28t-28 68t28 68t68 28q39 0 67.5 -28t28.5 -68zM416 1504q0 -40 -28.5 -68t-67.5 -28q-40 0 -68 28t-28 68t28 68t68 28q39 0 67.5 -28t28.5 -68zM961 1217q0 -19 -12 -37l-373 -560v-556q0 -64 -64 -64t-64 64v556 l-373 560q-12 18 -12 37q0 26 20.5 45t46.5 19q32 0 51 -29l331 -497l331 497q20 29 51 29q26 0 46.5 -19t20.5 -45z" unicode="Ÿ"/><glyph d="M769 1474q0 -26 -19.5 -46.5t-44.5 -20.5q-19 0 -37 12l-156 104l-156 -104q-18 -12 -37 -12q-26 0 -45 20.5t-19 46.5q0 30 29 51q183 137 228 136q44 0 228 -136q29 -21 29 -51z" unicode="ˆ"/><glyph d="M833 1539q0 -20 -16 -47q-49 -84 -177 -84q-73 0 -151 64t-105 64q-44 0 -67 -20q-15 -44 -59 -44q-67 0 -67 61q0 20 16 47q49 84 177 84q73 0 151 -64t105 -64q52 0 74 32t52 32q67 0 67 -61z" unicode="˜"/><glyph horiz-adv-x="832"/><glyph horiz-adv-x="1665"/><glyph horiz-adv-x="832"/><glyph horiz-adv-x="1665"/><glyph horiz-adv-x="555"/><glyph horiz-adv-x="416"/><glyph horiz-adv-x="277"/><glyph horiz-adv-x="277"/><glyph horiz-adv-x="208"/><glyph horiz-adv-x="333"/><glyph horiz-adv-x="92"/><glyph d="M768 448q0 -64 -64 -64h-384q-64 0 -64 64t64 64h384q64 0 64 -64z" unicode="‐"/><glyph d="M768 448q0 -64 -64 -64h-384q-64 0 -64 64t64 64h384q64 0 64 -64z" unicode="‑"/><glyph d="M768 448q0 -64 -64 -64h-384q-64 0 -64 64t64 64h384q64 0 64 -64z" unicode="‒"/><glyph d="M832 448q0 -64 -64 -64h-512q-64 0 -64 64t64 64h512q64 0 64 -64z" unicode="–"/><glyph d="M960 448q0 -64 -64 -64h-768q-64 0 -64 64t64 64h768q64 0 64 -64z" unicode="—"/><glyph d="M634 1231q0 -21 -20 -44q-94 -108 -94 -227q0 -64 -64 -64t-64 64q0 197 131 317q22 20 45 20q26 0 46 -20t20 -46z" unicode="‘"/><glyph d="M632 1216q0 -197 -131 -317q-22 -20 -45 -20q-26 0 -46 19.5t-20 46.5q0 21 20 44q94 108 94 227q0 64 64 64t64 -64z" unicode="’"/><glyph d="M632 64q0 -197 -131 -317q-22 -20 -45 -20q-26 0 -46 19.5t-20 46.5q0 21 20 44q94 108 94 227q0 64 64 64t64 -64z" unicode="‚"/><glyph d="M826 1231q0 -21 -20 -44q-94 -108 -94 -227q0 -64 -64 -64t-64 64q0 197 131 317q22 20 45 20q26 0 46 -20t20 -46zM442 1231q0 -21 -20 -44q-94 -108 -94 -227q0 -64 -64 -64t-64 64q0 197 131 317q22 20 45 20q26 0 46 -20t20 -46z" unicode="“"/><glyph d="M824 1216q0 -197 -131 -317q-22 -20 -45 -20q-26 0 -46 19.5t-20 46.5q0 21 20 44q94 108 94 227q0 64 64 64t64 -64zM440 1216q0 -197 -131 -317q-22 -20 -45 -20q-26 0 -46 19.5t-20 46.5q0 21 20 44q94 108 94 227q0 64 64 64t64 -64z" unicode="”"/><glyph d="M824 64q0 -197 -131 -317q-22 -20 -45 -20q-26 0 -46 19.5t-20 46.5q0 21 20 44q94 108 94 227q0 64 64 64t64 -64zM440 64q0 -197 -131 -317q-22 -20 -45 -20q-26 0 -46 19.5t-20 46.5q0 21 20 44q94 108 94 227q0 64 64 64t64 -64z" unicode="„"/><glyph d="M971 590q0 -60 -21 -112q-29 -67 -80 -67q-52 0 -81 67q-22 52 -22 112q0 57 23 111q30 67 80 67q49 0 78 -67q23 -54 23 -111zM742 718q0 -61 -23 -112q-28 -67 -79 -68q-52 0 -80 68q-22 51 -22 112q0 57 23 111q30 67 79 67t79 -67q23 -54 23 -111zM486 718 q0 -61 -22 -112q-28 -67 -80 -68q-51 0 -79 68q-22 51 -23 112q0 57 23 111q30 67 79 67t79 -67q23 -54 23 -111zM871 235q0 -74 -24 -133q-33 -79 -98 -79q-18 0 -50.5 14t-50.5 14q-26 0 -68 -25.5t-68 -25.5t-67.5 25.5t-68.5 25.5q-19 0 -51 -14t-50 -14q-64 0 -98 79 q-25 59 -24 133q0 124 121 204q108 71 238 71q131 0 238 -71q121 -80 121 -204zM257 590q0 -60 -22 -112q-28 -67 -81 -67q-51 0 -80 67q-21 52 -21 112q0 57 23 111q29 67 78 67t80 -67q23 -54 23 -111z" unicode="•"/><glyph d="M951 97q0 -40 -29 -68.5t-69 -28.5t-68.5 28.5t-28.5 68.5t28.5 67.5t68.5 27.5t69 -27.5t29 -67.5zM609 97q0 -40 -28.5 -68.5t-68.5 -28.5t-68.5 28.5t-28.5 68.5t28.5 67.5t68.5 27.5t68.5 -27.5t28.5 -67.5zM268 97q0 -40 -28.5 -68.5t-68.5 -28.5t-69 28.5t-29 68.5 t29 67.5t69 27.5t68.5 -27.5t28.5 -67.5z" unicode="…"/><glyph horiz-adv-x="333"/><glyph d="M673 62q0 -26 -20.5 -44.5t-46.5 -18.5q-37 0 -56 36l-192 384q-3 7 -2 29q0 22 2 29l192 384q19 36 56 36q26 0 46.5 -18.5t20.5 -44.5q0 -15 -7 -31l-179 -355l179 -355q7 -16 7 -31z" unicode="‹"/><glyph d="M668 448q0 -22 -2 -29l-192 -384q-19 -36 -56 -36q-26 0 -46.5 18.5t-20.5 44.5q0 15 7 31l179 355l-179 355q-8 15 -7 31q0 26 20.5 44.5t46.5 18.5q37 0 56 -36l192 -384q2 -7 2 -29z" unicode="›"/><glyph horiz-adv-x="416"/><glyph d="M961 234q0 -17 -12 -38q-50 -84 -140 -139q-93 -57 -189 -57q-167 0 -290 145q-104 123 -144 303h-33q-89 -2 -89 64q0 43 33 56q19 8 70 8q-2 32 -1 64q0 32 1 64q-51 0 -70 8q-33 14 -33 56q0 48 42 60q17 4 80 4q40 180 144 303q122 145 290 145q96 0 189 -57 q90 -55 140 -139q12 -20 12 -38q0 -26 -20.5 -44.5t-46.5 -18.5q-28 0 -51 28q-113 141 -223 141t-198 -108q-73 -90 -105 -212h390q64 0 64 -64t-64 -64h-411q-3 -32 -2 -64q0 -32 2 -64h324q64 0 64 -64t-64 -64h-303q32 -122 105 -212q88 -108 198 -108t223 141 q23 29 51 29q26 0 46.5 -19t20.5 -45z" unicode="€"/><glyph d="M961 638q0 -62 -66 -62q-54 0 -61 54l-47 297l-53 -178q-17 -56 -62 -56q-44 0 -61 56l-53 179l-46 -298q-9 -54 -62 -54q-66 0 -66 62q0 5 2 12l89 576q9 65 62 65q46 0 62 -56l73 -244l74 244q17 56 62 56q52 0 62 -65l90 -576q1 -7 1 -12zM460 1216q0 -49 -47 -61 q-13 -3 -87 -3v-512q0 -64 -64 -64t-64 64v512q-7 0 -23 -1h-22q-90 0 -90 65q0 64 64 64h269q64 0 64 -64z" unicode="™"/><glyph d="M0 896h896v-896h-896v896z" horiz-adv-x="896" unicode="◼"/><glyph d="M512 1044q-146 0 -274 -52.5t-226 -146.5q-12 -12 -12 -30t12 -30l106 -106q12 -12 30 -12t29 12q53 48 115 78q22 12 24 40v131q92 31 195 31t197 -31v-131q2 -26 24 -38q61 -32 115 -80q12 -12 29.5 -12t29.5 12l106 106q12 12 12 31t-12 29q-100 94 -227 146.5 t-273 52.5zM384 876v-128q-16 -10 -128 -124t-128 -220v-168h768v168q-16 106 -128 219.5t-128 124.5v128h-86v-88h-84v88h-86zM512 660q72 -2 120 -49.5t48 -121t-48 -121t-120 -47.5t-120 47.5t-48 121t48 121t120 49.5zM512 597q-46 -3 -76 -32.5t-30 -74.5t30 -75 t76 -30t76 30t30 75t-30 74.5t-76 32.5z" unicode="ﬁ"/><glyph d="M615 255h409v101h-409v-101zM615 537h409v103h-409v-103zM615 817h409v104h-409v-104zM0 586q3 143 97.5 236.5t233.5 98.5h27v104l154 -154l-154 -154v100h-27q-98 -3 -163 -67t-65 -163t65 -164t163 -67h181v-101h-181q-139 3 -233.5 97.5t-97.5 233.5z" unicode="ﬂ"/><glyph d="M615 1025h409v-101h-409v101zM615 743h409v-103h-409v103zM615 463h409v-104h-409v104zM0 694q3 -143 97.5 -236.5t233.5 -98.5h27v-104l154 154l-154 154v-100h-27q-98 3 -163 67t-65 163t65 164t163 67h181v101h-181q-139 -3 -233.5 -97.5t-97.5 -233.5z" unicode="ﬃ"/><glyph d="M35 556q22 58 51.5 95t55.5 48q0 63 22 91v12q0 13 8 31q8 150 96.5 247.5t243.5 99.5q154 -3 243.5 -100t96.5 -247q8 -18 7 -31v-12q23 -28 23 -91q26 -11 55 -49t52 -94q31 -74 34.5 -131t-19.5 -72q-18 -8 -41.5 10t-49.5 53q-20 -81 -91 -139q38 -15 59.5 -35.5 t21.5 -45.5q-3 -41 -56 -68.5t-134 -27.5q-74 0 -124.5 22.5t-66.5 58.5h-20q-15 -36 -66 -58.5t-125 -22.5q-81 0 -134 27.5t-56 68.5q0 25 21.5 45.5t59.5 35.5q-71 58 -92 139q-25 -35 -49 -52.5t-41 -10.5q-23 15 -19.5 72t34.5 131z" unicode="ﬄ"/></font>
</defs>
</svg>
