<?xml version="1.0" standalone="no"?>
<!DOCTYPE svg PUBLIC "-//W3C//DTD SVG 1.1//EN" "http://www.w3.org/Graphics/SVG/1.1/DTD/svg11.dtd" >
<svg xmlns="http://www.w3.org/2000/svg" xmlns:xlink="http://www.w3.org/1999/xlink" version="1.1">
<metadata></metadata>
<defs>
<font id="retro_future_curly_eregular" horiz-adv-x="1280" >
<font-face units-per-em="2048" ascent="1638" descent="-410" />
<missing-glyph horiz-adv-x="1365" />
<glyph horiz-adv-x="0" />
<glyph horiz-adv-x="682" />
<glyph unicode=" "  horiz-adv-x="1365" />
<glyph unicode="&#x09;" horiz-adv-x="1365" />
<glyph unicode="&#xa0;" horiz-adv-x="1365" />
<glyph unicode="!" horiz-adv-x="853" d="M0 512v512h85v85h171v86h256v-86h171v-85h85v-512h-85v-341h-86v-342h-85v-256h-256v256h-85v342h-86v341h-85zM256 -512h256v-256h-256v256z" />
<glyph unicode="&#x22;" horiz-adv-x="853" d="M0 597v512h85v86h171v-512h-85v-86h-171zM512 597v512h85v86h171v-512h-85v-86h-171z" />
<glyph unicode="#" horiz-adv-x="1621" d="M0 -256h256v939h-171v85h-85v171h256v256h171v-86h85v-170h512v256h171v-86h85v-170h171v-86h85v-170h-256v-939h171v-85h85v-171h-256v-256h-171v85h-85v171h-512v-256h-171v85h-85v171h-171v85h-85v171zM512 -256h512v939h-512v-939z" />
<glyph unicode="$" horiz-adv-x="1536" d="M0 341v342h85v170h86v86h170v85h256v171h171v-86h85v-85h256v-85h171v-86h85v-170h-256v85h-256v-512h256v-85h171v-86h85v-85h86v-427h-86v-170h-85v-86h-171v-85h-256v-171h-170v86h-86v85h-256v85h-170v86h-86v170h256v-85h256v512h-256v85h-170v86h-86v170h-85z M256 341h85v-85h256v512h-256v-85h-85v-342zM853 0v-512h256v85h86v342h-86v85h-256z" />
<glyph unicode="%" horiz-adv-x="1621" d="M0 -512h85v85h86v86h85v85h85v85h86v86h85v85h85v85h86v86h85v85h85v85h86v86h85v85h85v85h86v86h85v85h256v-171h-85v-85h-86v-85h-85v-86h-85v-85h-86v-85h-85v-86h-85v-85h-86v-85h-85v-86h-85v-85h-86v-85h-85v-86h-85v-85h-86v-85h-85v-86h-85v-85h-171v256zM85 512 v256h256v-256h-256zM1195 -512h256v-256h-256v256z" />
<glyph unicode="&#x26;" horiz-adv-x="1706" d="M0 0h85v171h86v85h85v171h-85v341h85v171h85v85h171v85h341v-85h171v-85h85v-171h86v-341h-86v-171h-85v-85h-171v-86h86v-85h85v-85h85v-86h86v171h85v85h171v-426h-86v-86h86v-85h85v-85h85v-171h-256v85h-85v86h-85v-86h-171v-85h-597v85h-171v86h-85v85h-86v171h-85 v341zM256 -85v-256h85v-86h86v-85h512v85h85v86h-85v85h-86v85h-85v86h-85v85h-86v85h-170v-85h-86v-85h-85zM427 427h85v-86h341v86h86v341h-86v85h-341v-85h-85v-341z" />
<glyph unicode="'" horiz-adv-x="341" d="M0 597v512h85v86h171v-512h-85v-86h-171z" />
<glyph unicode="(" horiz-adv-x="1024" d="M0 -341v1109h85v171h86v85h85v85h171v86h426v-86h86v-170h-512v-86h-86v-85h-85v-1109h85v-86h86v-85h512v-171h-86v-85h-426v85h-171v86h-85v85h-86v171h-85z" />
<glyph unicode=")" horiz-adv-x="1024" d="M0 -512h512v85h85v86h86v1109h-86v85h-85v86h-512v170h85v86h427v-86h171v-85h85v-85h85v-171h86v-1109h-86v-171h-85v-85h-85v-86h-171v-85h-427v85h-85v171z" />
<glyph unicode="*" horiz-adv-x="1621" d="M0 -512h85v85h86v86h85v85h85v85h86v86h85v85h85v85h-85v86h-85v85h-86v85h-85v86h-85v85h-86v85h-85v171h256v-85h85v-86h86v-85h85v-85h85v-86h86v-85h170v85h86v86h85v85h85v85h86v86h85v85h256v-171h-85v-85h-86v-85h-85v-86h-85v-85h-86v-85h-85v-86h-85v-85h85v-85 h85v-86h86v-85h85v-85h85v-86h86v-85h85v-256h-171v85h-85v86h-85v85h-86v85h-85v86h-85v85h-86v85h-170v-85h-86v-85h-85v-86h-85v-85h-86v-85h-85v-86h-85v-85h-171v256z" />
<glyph unicode="+" horiz-adv-x="1536" d="M0 -85v170h597v512h86v86h170v-598h512v-85h86v-171h-598v-512h-85v-85h-171v597h-512v86h-85z" />
<glyph unicode="," horiz-adv-x="341" d="M0 -256h85v85h171v-512h-85v-85h-171v512z" />
<glyph unicode="-" horiz-adv-x="1536" d="M0 85h1365v-85h86v-171h-1366v86h-85v170z" />
<glyph unicode="." horiz-adv-x="341" d="M0 -512h256v-256h-256v256z" />
<glyph unicode="/" horiz-adv-x="682" d="M0 -341h85v341h86v427h85v341h85v341h86v86h170v-427h-85v-341h-85v-427h-86v-341h-85v-342h-85v-85h-171v427z" />
<glyph unicode="0" horiz-adv-x="1536" d="M0 -341v1109h85v171h86v85h85v85h171v86h597v-86h171v-85h85v-85h85v-171h86v-1109h-86v-171h-85v-85h-85v-86h-171v-85h-597v85h-171v86h-85v85h-86v171h-85zM256 -341h85v-86h86v-85h597v85h85v86h86v1109h-86v85h-85v86h-597v-86h-86v-85h-85v-1109zM512 85v256h85v86 h256v-86h86v-256h-86v-85h-256v85h-85z" />
<glyph unicode="1" horiz-adv-x="1450" d="M0 341v171h85v85h86v86h85v85h85v85h86v86h85v85h85v85h86v86h170v-1707h512v-171h-85v-85h-1280v171h85v85h512v1195h-85v-86h-85v-85h-86v-85h-85v-86h-256z" />
<glyph unicode="2" horiz-adv-x="1450" d="M0 -85h85v170h86v86h170v85h598v85h85v86h85v341h-85v85h-85v86h-598v-86h-85v-85h-256v171h85v85h86v85h170v86h598v-86h170v-85h86v-85h85v-171h85v-341h-85v-171h-85v-85h-86v-86h-170v-85h-512v-85h-86v-86h-85v-341h1109v-171h-85v-85h-1195v85h-85v598z" />
<glyph unicode="3" horiz-adv-x="1450" d="M0 -341h256v-86h85v-85h598v85h85v86h85v256h-85v85h-85v85h-683v171h85v85h598v86h85v85h85v256h-85v85h-85v86h-598v-86h-85v-85h-256v171h85v85h86v85h170v86h598v-86h170v-85h86v-85h85v-171h85v-341h-85v-171h-85v-85h85v-171h85v-341h-85v-171h-85v-85h-86v-86 h-170v-85h-598v85h-170v86h-86v85h-85v171z" />
<glyph unicode="4" horiz-adv-x="1450" d="M0 171v1024h171v-86h85v-768h853v854h171v-86h85v-1877h-170v85h-86v768h-1024v86h-85z" />
<glyph unicode="5" horiz-adv-x="1450" d="M0 -341h256v-86h85v-85h598v85h85v86h85v341h-85v85h-85v86h-598v85h-170v85h-86v171h-85v597h85v86h1195v-86h85v-170h-1109v-342h85v-85h86v-85h512v-86h170v-85h86v-85h85v-171h85v-341h-85v-171h-85v-85h-86v-86h-170v-85h-598v85h-170v86h-86v85h-85v171z" />
<glyph unicode="6" horiz-adv-x="1450" d="M0 -341v1109h85v171h86v85h85v85h171v86h597v-86h171v-85h85v-171h85v-256h-85v-85h-171v256h-85v85h-85v86h-512v-86h-86v-85h-85v-427h171v86h512v-86h170v-85h86v-85h85v-171h85v-341h-85v-171h-85v-85h-86v-86h-170v-85h-512v85h-171v86h-85v85h-86v171h-85zM256 0 v-341h85v-86h86v-85h512v85h85v86h85v341h-85v85h-85v86h-512v-86h-86v-85h-85z" />
<glyph unicode="7" horiz-adv-x="1450" d="M0 -512h85v85h86v86h85v85h85v85h86v86h85v85h85v85h86v86h85v85h85v85h86v86h85v85h85v427h-1024v85h-85v171h1280v-86h85v-682h-85v-86h-85v-85h-86v-85h-85v-86h-85v-85h-86v-85h-85v-86h-85v-85h-86v-85h-85v-86h-85v-85h-86v-85h-85v-86h-85v-85h-171v256z" />
<glyph unicode="8" horiz-adv-x="1450" d="M0 0h85v171h86v85h-86v171h-85v341h85v171h86v85h85v85h171v86h512v-86h170v-85h86v-85h85v-171h85v-341h-85v-171h-85v-85h85v-171h85v-341h-85v-171h-85v-85h-86v-86h-85v-85h-683v85h-85v86h-85v85h-86v171h-85v341zM256 -85v-256h85v-86h86v-85h512v85h85v86h85v256 h-85v85h-85v85h-512v-85h-86v-85h-85zM256 512h85v-85h86v-86h512v86h85v85h85v256h-85v85h-85v86h-512v-86h-86v-85h-85v-256z" />
<glyph unicode="9" horiz-adv-x="1450" d="M0 -171h85v86h171v-256h85v-86h86v-85h512v85h85v86h85v426h-170v-85h-512v85h-171v86h-85v85h-86v171h-85v341h85v171h86v85h85v85h171v86h512v-86h170v-85h86v-85h85v-171h85v-1109h-85v-171h-85v-85h-86v-86h-170v-85h-598v85h-170v86h-86v170h-85v256zM256 427h85 v-86h86v-85h512v85h85v86h85v341h-85v85h-85v86h-512v-86h-86v-85h-85v-341z" />
<glyph unicode=":" horiz-adv-x="341" d="M0 -512h256v-256h-256v256zM0 939v256h256v-256h-256z" />
<glyph unicode=";" horiz-adv-x="341" d="M0 -256h85v85h171v-512h-85v-85h-171v512zM0 939v256h256v-256h-256z" />
<glyph unicode="&#x3c;" horiz-adv-x="1621" d="M0 -85v341h85v85h86v86h85v85h85v85h86v86h85v85h85v85h86v86h853v-171h-85v-85h-683v-86h-85v-85h-86v-85h-85v-86h-85v-85h-86v-85h-85v-171h85v-85h86v-86h85v-85h85v-85h86v-86h85v-85h683v-85h85v-171h-853v85h-86v86h-85v85h-85v85h-86v86h-85v85h-85v85h-86v86 h-85z" />
<glyph unicode="=" horiz-adv-x="1621" d="M0 -512h1451v-85h85v-171h-1451v85h-85v171zM0 768v171h1451v-86h85v-170h-1451v85h-85z" />
<glyph unicode="&#x3e;" horiz-adv-x="1621" d="M0 -597h85v85h683v85h85v86h86v85h85v85h85v86h86v85h85v171h-85v85h-86v85h-85v86h-85v85h-86v85h-85v86h-683v85h-85v171h853v-86h86v-85h85v-85h85v-86h86v-85h85v-85h85v-86h86v-85h85v-341h-85v-86h-86v-85h-85v-85h-85v-86h-86v-85h-85v-85h-85v-86h-86v-85h-853 v171z" />
<glyph unicode="?" horiz-adv-x="1450" d="M0 768v171h85v85h86v85h170v86h598v-86h170v-85h86v-85h85v-171h85v-341h-85v-171h-85v-85h-86v-86h-170v-85h-256v-341h-86v-86h-170v598h85v85h427v85h85v86h85v341h-85v85h-85v86h-598v-86h-85v-85h-256zM427 -512h256v-256h-256v256z" />
<glyph unicode="@" horiz-adv-x="1536" d="M0 -341v1109h85v171h86v85h85v85h171v86h597v-86h171v-85h85v-85h85v-171h86v-683h-86v-170h-85v-86h-85v-85h-171v-85h-341v85h-171v85h-85v171h-86v341h86v171h85v85h171v86h341v-86h171v171h-86v85h-85v86h-597v-86h-86v-85h-85v-1109h85v-86h86v-85h682v85h86v86h256 v-171h-86v-85h-85v-86h-171v-85h-682v85h-171v86h-85v85h-86v171h-85zM597 0h86v-85h341v85h85v85h86v171h-86v85h-85v86h-341v-86h-86v-341z" />
<glyph unicode="A" horiz-adv-x="1792" d="M0 -768v1536h85v171h86v85h85v85h171v86h512v-86h170v-85h86v-85h85v-171h85v-1621h86v-86h256v-170h-86v-86h-341v86h-85v85h-86v1195h-85v-86h-597v86h-86v85h86v85h597v86h85v341h-85v85h-85v86h-512v-86h-86v-85h-85v-1451h-85v-85h-171z" />
<glyph unicode="B" horiz-adv-x="1450" d="M0 -768v1536h85v171h86v85h85v85h171v86h512v-86h170v-85h86v-85h85v-171h85v-341h-85v-171h-85v-85h85v-171h85v-341h-85v-171h-85v-85h-86v-86h-170v-85h-598v171h86v85h512v85h85v86h85v256h-85v85h-85v85h-598v171h86v85h512v86h85v85h85v256h-85v85h-85v86h-512v-86 h-86v-85h-85v-1451h-85v-85h-171z" />
<glyph unicode="C" horiz-adv-x="1536" d="M0 -341v1109h85v171h86v85h85v85h171v86h682v-86h171v-85h85v-85h86v-171h-256v85h-86v86h-682v-86h-86v-85h-85v-1109h85v-86h86v-85h682v85h86v86h256v-171h-86v-85h-85v-86h-171v-85h-682v85h-171v86h-85v85h-86v171h-85z" />
<glyph unicode="D" horiz-adv-x="1536" d="M0 -768v1536h85v171h86v85h85v85h171v86h597v-86h171v-85h85v-85h85v-171h86v-1109h-86v-171h-85v-85h-85v-86h-171v-85h-683v171h86v85h597v85h85v86h86v1109h-86v85h-85v86h-597v-86h-86v-85h-85v-1451h-85v-85h-171z" />
<glyph unicode="E" horiz-adv-x="1450" d="M0 0h85v171h86v85h-86v171h-85v341h85v171h86v85h85v85h171v86h597v-86h171v-85h85v-85h85v-171h-256v85h-85v86h-597v-86h-86v-85h-85v-256h85v-85h86v-86h597v-170h-85v-86h-512v-85h-86v-85h-85v-256h85v-86h86v-85h597v85h85v86h256v-171h-85v-85h-85v-86h-171v-85 h-597v85h-171v86h-85v85h-86v171h-85v341z" />
<glyph unicode="F" horiz-adv-x="1450" d="M0 -768v1536h85v171h86v85h85v85h171v86h853v-86h85v-170h-938v-86h-86v-85h-85v-427h683v-85h85v-171h-768v-768h-85v-85h-171z" />
<glyph unicode="G" horiz-adv-x="1536" d="M0 -341v1109h85v171h86v85h85v85h171v86h682v-86h171v-85h85v-85h86v-171h-256v85h-86v86h-682v-86h-86v-85h-85v-1109h85v-86h86v-85h682v85h86v512h-598v86h-85v170h853v-85h86v-768h-86v-85h-85v-86h-171v-85h-682v85h-171v86h-85v85h-86v171h-85z" />
<glyph unicode="H" horiz-adv-x="1792" d="M0 -768v1877h85v86h171v-1878h-85v-85h-171zM341 171v85h86v85h682v768h86v86h170v-2048h86v-86h256v-170h-86v-86h-341v86h-85v85h-86v1109h-682v86h-86z" />
<glyph unicode="I" horiz-adv-x="341" d="M0 -768v1877h85v86h171v-1878h-85v-85h-171z" />
<glyph unicode="J" horiz-adv-x="1450" d="M0 0h85v85h171v-426h85v-86h86v-85h512v85h85v86h85v1450h86v86h170v-1536h-85v-171h-85v-85h-86v-86h-170v-85h-512v85h-171v86h-85v85h-86v171h-85v341z" />
<glyph unicode="K" horiz-adv-x="1792" d="M0 -768v1963h171v-86h85v-768h683v86h85v85h85v683h171v-86h85v-682h-85v-171h-85v-85h85v-171h85v-853h86v-86h256v-170h-86v-86h-341v86h-85v85h-86v939h-85v85h-85v85h-683v-768h-85v-85h-171z" />
<glyph unicode="L" horiz-adv-x="1450" d="M0 -341v1536h171v-86h85v-1450h85v-86h86v-85h853v-85h85v-171h-938v85h-171v86h-85v85h-86v171h-85z" />
<glyph unicode="M" horiz-adv-x="2560" d="M0 -768v1536h85v171h86v85h85v85h171v86h341v-86h171v-85h85v-85h85v85h86v85h170v86h342v-86h170v-85h86v-85h85v-171h85v-1621h86v-86h256v-170h-86v-86h-341v86h-85v85h-86v1792h-85v85h-85v86h-342v-86h-85v-85h-85v-1451h-86v-85h-170v1536h-86v85h-85v86h-341v-86 h-86v-85h-85v-1451h-85v-85h-171z" />
<glyph unicode="N" horiz-adv-x="1792" d="M0 -768v1536h85v171h86v85h85v85h171v86h512v-86h170v-85h86v-85h85v-171h85v-1621h86v-86h256v-170h-86v-86h-341v86h-85v85h-86v1792h-85v85h-85v86h-512v-86h-86v-85h-85v-1451h-85v-85h-171z" />
<glyph unicode="O" horiz-adv-x="1536" d="M0 -341v1109h85v171h86v85h85v85h171v86h597v-86h171v-85h85v-85h85v-171h86v-1109h-86v-171h-85v-85h-85v-86h-171v-85h-597v85h-171v86h-85v85h-86v171h-85zM256 -341h85v-86h86v-85h597v85h85v86h86v1109h-86v85h-85v86h-597v-86h-86v-85h-85v-1109z" />
<glyph unicode="P" horiz-adv-x="1450" d="M0 -768v1536h85v171h86v85h85v85h171v86h512v-86h170v-85h86v-85h85v-171h85v-427h-85v-170h-85v-86h-86v-85h-170v-85h-598v170h86v86h512v85h85v85h85v427h-85v85h-85v86h-512v-86h-86v-85h-85v-1451h-85v-85h-171z" />
<glyph unicode="Q" horiz-adv-x="1536" d="M0 -341v1109h85v171h86v85h85v85h171v86h597v-86h171v-85h85v-85h85v-171h86v-1109h-86v-171h-85v-85h-85v-86h-171v-85h-171v-256h-85v-85h-85v-86h-342v86h-85v170h256v86h85v85h-170v85h-171v86h-85v85h-86v171h-85zM256 -341h85v-86h86v-85h170v341h86v86h170v-427 h171v85h85v86h86v1109h-86v85h-85v86h-597v-86h-86v-85h-85v-1109z" />
<glyph unicode="R" horiz-adv-x="1792" d="M0 -768v1536h85v171h86v85h85v85h171v86h512v-86h170v-85h86v-85h85v-171h85v-512h-85v-171h-85v-85h85v-171h85v-682h86v-86h256v-170h-86v-86h-341v86h-85v85h-86v768h-85v85h-85v86h-512v85h-86v171h598v85h85v85h85v427h-85v85h-85v86h-512v-86h-86v-85h-85v-1451 h-85v-85h-171z" />
<glyph unicode="S" horiz-adv-x="1450" d="M0 -341h256v-86h85v-85h598v85h85v86h85v256h-85v85h-85v85h-598v86h-170v85h-86v171h-85v341h85v171h86v85h85v85h171v86h597v-86h171v-85h85v-85h85v-171h-256v85h-85v86h-597v-86h-86v-85h-85v-256h85v-85h86v-86h597v-85h171v-85h85v-171h85v-341h-85v-171h-85v-85 h-86v-86h-170v-85h-598v85h-170v86h-86v85h-85v171z" />
<glyph unicode="T" horiz-adv-x="1536" d="M0 1024v171h1365v-86h86v-170h-598v-1622h-85v-85h-171v1707h-512v85h-85z" />
<glyph unicode="U" horiz-adv-x="1450" d="M0 -341v1536h171v-86h85v-1450h85v-86h86v-85h512v85h85v86h85v1450h86v86h170v-1536h-85v-171h-85v-85h-86v-86h-170v-85h-512v85h-171v86h-85v85h-86v171h-85z" />
<glyph unicode="V" horiz-adv-x="1536" d="M0 853v342h171v-86h85v-256h85v-256h86v-256h85v-256h85v-256h86v-256h85v256h85v256h86v256h85v256h85v256h86v256h85v86h171v-342h-86v-256h-85v-256h-85v-256h-86v-256h-85v-256h-85v-170h-86v-171h-256v171h-85v170h-85v256h-86v256h-85v256h-85v256h-86v256h-85z " />
<glyph unicode="W" horiz-adv-x="2218" d="M0 -341v1536h171v-86h85v-1450h85v-86h86v-85h341v85h85v86h86v1536h170v-86h86v-1450h85v-86h85v-85h342v85h85v86h85v1536h171v-86h85v-1450h-85v-171h-85v-85h-86v-86h-170v-85h-342v85h-170v86h-86v85h-85v-85h-85v-86h-171v-85h-341v85h-171v86h-85v85h-86v171h-85z " />
<glyph unicode="X" horiz-adv-x="1450" d="M0 -85h85v170h86v86h85v85h-85v85h-86v171h-85v683h171v-86h85v-597h85v-85h86v-86h512v86h85v85h85v597h86v86h170v-683h-85v-171h-85v-85h-86v-85h86v-86h85v-170h85v-683h-170v85h-86v598h-85v85h-85v85h-512v-85h-86v-85h-85v-598h-85v-85h-171v683z" />
<glyph unicode="Y" horiz-adv-x="1450" d="M0 -341h171v-86h85v-341h85v-85h86v-86h512v86h85v85h85v768h-170v-85h-512v85h-171v85h-85v86h-86v170h-85v854h171v-86h85v-768h85v-85h86v-85h512v85h85v85h85v768h86v86h170v-1963h-85v-171h-85v-85h-86v-85h-170v-86h-512v86h-171v85h-85v85h-86v171h-85v427z" />
<glyph unicode="Z" horiz-adv-x="1621" d="M0 -341h85v85h86v85h85v86h85v85h86v85h85v86h85v85h86v85h85v86h85v85h86v85h85v86h85v85h86v85h85v86h-1109v85h-86v171h1366v-86h85v-341h-85v-85h-86v-86h-85v-85h-85v-85h-86v-86h-85v-85h-85v-85h-86v-86h-85v-85h-85v-85h-86v-86h-85v-85h-85v-85h-86v-86h-85v-85 h1109v-85h86v-171h-1366v85h-85v342z" />
<glyph unicode="[" horiz-adv-x="1024" d="M0 -683v1792h85v86h854v-171h-86v-85h-512v-86h-85v-1280h85v-85h512v-85h86v-171h-854v85h-85z" />
<glyph unicode="\" horiz-adv-x="682" d="M0 768v427h171v-86h85v-341h85v-341h86v-427h85v-341h85v-427h-170v85h-86v342h-85v341h-85v427h-86v341h-85z" />
<glyph unicode="]" horiz-adv-x="1024" d="M0 -597h85v85h512v85h86v1280h-86v86h-512v85h-85v171h853v-86h86v-1792h-86v-85h-853v171z" />
<glyph unicode="^" horiz-adv-x="1109" d="M0 597v171h85v85h86v86h85v85h85v85h86v86h170v-86h86v-85h85v-85h85v-86h86v-85h85v-171h-256v86h-85v85h-86v85h-170v-85h-86v-85h-85v-86h-256z" />
<glyph unicode="_" horiz-adv-x="1536" d="M0 -512h1365v-85h86v-171h-1366v85h-85v171z" />
<glyph unicode="`" horiz-adv-x="341" d="M0 597v512h85v86h171v-512h-85v-86h-171z" />
<glyph unicode="a" d="M0 0h85v171h86v85h85v85h171v86h341v-86h171v-85h85v-85h85v-171h86v-683h-86v-85h-170v768h-86v85h-85v86h-341v-86h-86v-85h-85v-341h85v-86h86v-85h426v-171h-85v-85h-341v85h-171v86h-85v85h-86v171h-85v341z" />
<glyph unicode="b" d="M0 -341v1194h171v-85h85v-1109h85v-86h86v-85h341v85h85v86h86v341h-86v85h-85v86h-427v170h86v86h341v-86h171v-85h85v-85h85v-171h86v-341h-86v-171h-85v-85h-85v-86h-171v-85h-341v85h-171v86h-85v85h-86v171h-85z" />
<glyph unicode="c" horiz-adv-x="1194" d="M0 0h85v171h86v85h85v85h171v86h426v-86h171v-85h85v-171h-256v86h-426v-86h-86v-85h-85v-341h85v-86h86v-85h426v85h256v-170h-85v-86h-171v-85h-426v85h-171v86h-85v85h-86v171h-85v341z" />
<glyph unicode="d" d="M0 0h85v171h86v85h85v85h171v86h341v-86h85v-170h-426v-86h-86v-85h-85v-341h85v-86h86v-85h341v85h85v86h86v1194h170v-85h86v-1109h-86v-171h-85v-85h-85v-86h-171v-85h-341v85h-171v86h-85v85h-86v171h-85v341z" />
<glyph unicode="e" d="M0 0h85v171h86v85h85v85h171v86h426v-86h171v-85h85v-85h86v-342h-86v-85h-768v171h86v85h512v85h-86v86h-426v-86h-86v-85h-85v-341h85v-86h86v-85h426v85h86v86h256v-171h-86v-85h-85v-86h-171v-85h-426v85h-171v86h-85v85h-86v171h-85v341z" />
<glyph unicode="f" d="M0 427h85v170h86v86h85v85h171v85h341v-85h171v-85h85v-86h85v-170h86v-342h-86v-85h-170v427h-86v85h-85v85h-341v-85h-86v-85h-85v-427h427v-85h85v-171h-512v-427h-85v-85h-171v1195z" />
<glyph unicode="g" d="M0 0h85v171h86v85h85v85h171v86h341v-86h171v-85h85v-85h85v-171h86v-768h-86v-171h-85v-85h-85v-85h-171v-86h-597v86h-86v170h683v86h85v85h86v768h-86v85h-85v86h-341v-86h-86v-85h-85v-341h85v-86h86v-85h426v-171h-85v-85h-341v85h-171v86h-85v85h-86v171h-85v341z " />
<glyph unicode="h" horiz-adv-x="1621" d="M0 -768v1621h171v-85h85v-1451h-85v-85h-171zM341 171v170h86v86h341v-86h171v-85h85v-85h85v-171h86v-853h85v-86h256v-170h-85v-86h-342v86h-85v85h-85v1024h-86v85h-85v86h-427z" />
<glyph unicode="i" horiz-adv-x="341" d="M0 427h85v85h171v-1195h-85v-85h-171v1195zM0 597v256h256v-256h-256z" />
<glyph unicode="j" horiz-adv-x="1194" d="M0 -939h683v86h85v85h85v768h86v85h170v-853h-85v-171h-85v-85h-86v-85h-170v-86h-598v86h-85v170zM853 171v256h256v-256h-256z" />
<glyph unicode="k" horiz-adv-x="1621" d="M0 -768v1621h171v-85h85v-768h512v85h85v86h86v341h170v-85h86v-342h-86v-170h-85v-86h85v-170h86v-512h85v-86h256v-170h-85v-86h-342v86h-85v85h-85v597h-86v86h-85v85h-512v-427h-85v-85h-171z" />
<glyph unicode="l" horiz-adv-x="341" d="M0 -768v1536h85v85h171v-1536h-85v-85h-171z" />
<glyph unicode="m" horiz-adv-x="2048" d="M0 85h85v171h86v85h170v86h427v-86h171v-85h85v85h171v86h426v-86h171v-85h85v-171h86v-768h-86v-85h-170v768h-86v85h-85v86h-256v-86h-85v-85h-86v-683h-85v-85h-171v768h-85v85h-85v86h-256v-86h-86v-85h-85v-683h-85v-85h-171v853z" />
<glyph unicode="n" horiz-adv-x="1621" d="M0 0h85v171h86v85h85v85h171v86h341v-86h171v-85h85v-85h85v-171h86v-853h85v-86h256v-170h-85v-86h-342v86h-85v85h-85v1024h-86v85h-85v86h-341v-86h-86v-85h-85v-683h-85v-85h-171v768z" />
<glyph unicode="o" d="M0 0h85v171h86v85h85v85h171v86h341v-86h171v-85h85v-85h85v-171h86v-341h-86v-171h-85v-85h-85v-86h-171v-85h-341v85h-171v86h-85v85h-86v171h-85v341zM256 0v-341h85v-86h86v-85h341v85h85v86h86v341h-86v85h-85v86h-341v-86h-86v-85h-85z" />
<glyph unicode="p" d="M0 0h85v171h86v85h85v85h171v86h341v-86h171v-85h85v-85h85v-171h86v-341h-86v-171h-85v-85h-85v-86h-171v-85h-427v171h86v85h341v85h85v86h86v341h-86v85h-85v86h-341v-86h-86v-85h-85v-1109h-85v-86h-171v1195z" />
<glyph unicode="q" d="M0 0h85v171h86v85h85v85h171v86h341v-86h171v-85h85v-85h85v-171h86v-1195h-171v86h-85v1109h-86v85h-85v86h-341v-86h-86v-85h-85v-341h85v-86h86v-85h426v-171h-85v-85h-341v85h-171v86h-85v85h-86v171h-85v341z" />
<glyph unicode="r" horiz-adv-x="1194" d="M0 0h85v171h86v85h85v85h171v86h597v-86h85v-170h-682v-86h-86v-85h-85v-683h-85v-85h-171v768z" />
<glyph unicode="s" horiz-adv-x="1194" d="M0 0v256h85v85h86v86h170v85h512v-85h171v-86h85v-170h-256v85h-512v-85h-85v-86h85v-85h427v-85h171v-86h85v-85h85v-256h-85v-85h-85v-86h-171v-85h-512v85h-171v86h-85v170h256v-85h512v85h85v86h-85v85h-427v85h-170v86h-86v85h-85z" />
<glyph unicode="t" d="M0 -341v1194h171v-85h85v-341h683v-171h-86v-85h-597v-512h85v-86h86v-85h341v85h85v86h86v341h170v-85h86v-256h-86v-171h-85v-85h-85v-86h-171v-85h-341v85h-171v86h-85v85h-86v171h-85z" />
<glyph unicode="u" d="M0 -341v768h171v-86h85v-682h85v-86h86v-85h341v85h85v86h86v682h85v86h171v-768h-86v-171h-85v-85h-85v-86h-171v-85h-341v85h-171v86h-85v85h-86v171h-85z" />
<glyph unicode="v" horiz-adv-x="1365" d="M0 171v256h171v-86h85v-170h85v-171h86v-171h85v-170h85v-171h86v171h85v170h85v171h86v171h85v170h85v86h171v-256h-85v-171h-86v-171h-85v-170h-85v-171h-86v-171h-85v-85h-256v85h-85v171h-86v171h-85v170h-85v171h-86v171h-85z" />
<glyph unicode="w" horiz-adv-x="2048" d="M0 427h171v-86h85v-682h85v-86h86v-85h256v85h85v86h85v768h171v-86h85v-682h86v-86h85v-85h256v85h85v86h86v768h170v-86h86v-768h-86v-170h-85v-86h-171v-85h-426v85h-171v86h-85v-86h-171v-85h-427v85h-170v86h-86v170h-85v854z" />
<glyph unicode="x" d="M0 171v341h171v-85h85v-256h85v-86h86v-85h341v85h85v86h86v256h85v85h171v-341h-86v-171h-85v-85h-85v-86h85v-85h85v-171h86v-341h-171v85h-85v256h-86v86h-85v85h-341v-85h-86v-86h-85v-256h-85v-85h-171v341h85v171h86v85h85v86h-85v85h-86v171h-85z" />
<glyph unicode="y" d="M0 -256v768h171v-85h85v-683h85v-85h86v-86h341v86h85v85h86v683h85v85h171v-1280h-86v-171h-85v-85h-85v-85h-171v-86h-597v86h-86v170h683v86h85v85h86v171h-171v-86h-341v86h-171v85h-85v85h-86v171h-85z" />
<glyph unicode="z" d="M0 -512h85v85h86v86h85v85h85v85h86v86h85v85h85v85h86v86h85v85h-597v85h-86v171h1024v-85h86v-171h-86v-85h-85v-86h-85v-85h-86v-85h-85v-86h-85v-85h-86v-85h-85v-86h-85v-85h597v-85h85v-171h-1024v85h-85v171z" />
<glyph unicode="{" d="M0 171v85h85v85h86v86h85v341h85v171h86v85h85v85h171v86h426v-86h86v-170h-512v-86h-86v-85h-85v-427h-85v-85h-86v-85h86v-86h85v-426h85v-86h86v-85h512v-171h-86v-85h-426v85h-171v86h-85v85h-86v171h-85v341h-85v85h-86v86h-85z" />
<glyph unicode="|" horiz-adv-x="341" d="M0 -768v1877h85v86h171v-1878h-85v-85h-171z" />
<glyph unicode="}" d="M0 -512h512v85h85v86h86v426h85v86h85v85h-85v85h-85v427h-86v85h-85v86h-512v170h85v86h427v-86h171v-85h85v-85h85v-171h86v-341h85v-86h85v-85h86v-85h-86v-86h-85v-85h-85v-341h-86v-171h-85v-85h-85v-86h-171v-85h-427v85h-85v171z" />
<glyph unicode="~" horiz-adv-x="1365" d="M0 939v256h171v-86h85v-85h85v-85h171v85h85v85h86v86h341v-86h85v-85h86v-85h85v-256h-171v85h-85v85h-85v86h-171v-86h-85v-85h-86v-85h-341v85h-85v85h-86v86h-85z" />
<glyph unicode="&#xa1;" horiz-adv-x="853" d="M0 -85h85v341h86v341h85v256h256v-256h85v-341h86v-341h85v-512h-85v-86h-171v-85h-256v85h-171v86h-85v512zM256 939v256h256v-256h-256z" />
<glyph unicode="&#xad;" horiz-adv-x="1536" d="M0 85h1365v-85h86v-171h-1366v86h-85v170z" />
<glyph unicode="&#xbf;" horiz-adv-x="1450" d="M0 0h85v171h86v85h85v85h171v86h256v341h85v85h171v-597h-86v-85h-426v-86h-86v-85h-85v-341h85v-86h86v-85h597v85h85v86h256v-171h-85v-85h-85v-86h-171v-85h-597v85h-171v86h-85v85h-86v171h-85v341zM683 939v256h256v-256h-256z" />
<glyph unicode="&#xc0;" horiz-adv-x="1792" d="M0 -768v1536h85v171h86v85h85v85h171v86h512v-86h170v-85h86v-85h85v-171h85v-1621h86v-86h256v-170h-86v-86h-341v86h-85v85h-86v1195h-85v-86h-597v86h-86v85h86v85h597v86h85v341h-85v85h-85v86h-512v-86h-86v-85h-85v-1451h-85v-85h-171zM512 1621v342h85v-86h86v-85 h85v-85h85v-342h-85v86h-85v85h-86v85h-85z" />
<glyph unicode="&#xc1;" horiz-adv-x="1792" d="M0 -768v1536h85v171h86v85h85v85h171v86h512v-86h170v-85h86v-85h85v-171h85v-1621h86v-86h256v-170h-86v-86h-341v86h-85v85h-86v1195h-85v-86h-597v86h-86v85h86v85h597v86h85v341h-85v85h-85v86h-512v-86h-86v-85h-85v-1451h-85v-85h-171zM512 1365v342h85v85h86v85 h85v86h85v-342h-85v-85h-85v-85h-86v-86h-85z" />
<glyph unicode="&#xc2;" horiz-adv-x="1792" d="M0 -768v1536h85v171h86v85h85v85h171v86h512v-86h170v-85h86v-85h85v-171h85v-1621h86v-86h256v-170h-86v-86h-341v86h-85v85h-86v1195h-85v-86h-597v86h-86v85h86v85h597v86h85v341h-85v85h-85v86h-512v-86h-86v-85h-85v-1451h-85v-85h-171zM171 1365v171h85v85h85v86 h86v85h85v85h85v86h171v-86h85v-85h86v-85h85v-86h85v-85h86v-171h-256v86h-86v85h-85v85h-171v-85h-85v-85h-85v-86h-256z" />
<glyph unicode="&#xc3;" horiz-adv-x="1792" d="M0 -768v1536h85v171h86v85h85v85h171v86h512v-86h170v-85h86v-85h85v-171h85v-1621h86v-86h256v-170h-86v-86h-341v86h-85v85h-86v1195h-85v-86h-597v86h-86v85h86v85h597v86h85v341h-85v85h-85v86h-512v-86h-86v-85h-85v-1451h-85v-85h-171zM0 1621v256h171v-85h85v-85 h85v-86h171v86h85v85h86v85h341v-85h85v-85h86v-86h85v-256h-171v86h-85v85h-85v85h-171v-85h-85v-85h-86v-86h-341v86h-85v85h-86v85h-85z" />
<glyph unicode="&#xc4;" horiz-adv-x="1792" d="M0 -768v1536h85v171h86v85h85v85h171v86h512v-86h170v-85h86v-85h85v-171h85v-1621h86v-86h256v-170h-86v-86h-341v86h-85v85h-86v1195h-85v-86h-597v86h-86v85h86v85h597v86h85v341h-85v85h-85v86h-512v-86h-86v-85h-85v-1451h-85v-85h-171zM85 1365v256h256v-256h-256z M1024 1365v256h256v-256h-256z" />
<glyph unicode="&#xc5;" horiz-adv-x="1792" d="M0 -768v1536h85v171h86v85h85v85h171v86h512v-86h170v-85h86v-85h85v-171h85v-1621h86v-86h256v-170h-86v-86h-341v86h-85v85h-86v1195h-85v-86h-597v86h-86v85h86v85h597v86h85v341h-85v85h-85v86h-512v-86h-86v-85h-85v-1451h-85v-85h-171zM341 1451v341h86v85h85v86 h341v-86h86v-85h85v-341h-85v-86h-86v-85h-341v85h-85v86h-86zM512 1536h85v-85h171v85h85v171h-85v85h-171v-85h-85v-171z" />
<glyph unicode="&#xc6;" horiz-adv-x="2560" d="M0 -768v1536h85v171h86v85h85v85h171v86h512v-86h170v-85h86v-85h85v85h85v85h171v86h597v-86h171v-85h85v-85h86v-171h-256v85h-86v86h-597v-86h-85v-85h-86v-341h86v-86h597v-170h-85v-86h-512v-85h-86v-341h86v-86h85v-85h597v85h86v86h256v-171h-86v-85h-85v-86h-171 v-85h-597v85h-171v86h-85v85h-85v171h-86v512h-85v-86h-597v86h-86v85h86v85h597v86h85v341h-85v85h-85v86h-512v-86h-86v-85h-85v-1451h-85v-85h-171z" />
<glyph unicode="&#xc7;" horiz-adv-x="1536" d="M0 -341v1109h85v171h86v85h85v85h171v86h682v-86h171v-85h85v-85h86v-171h-256v85h-86v86h-682v-86h-86v-85h-85v-1109h85v-86h86v-85h682v85h86v86h256v-171h-86v-85h-85v-86h-171v-85h-256v-171h-85v-85h-85v-85h-86v-86h-85v342h85v85h-170v85h-171v86h-85v85h-86v171 h-85z" />
<glyph unicode="&#xc8;" horiz-adv-x="1450" d="M0 0h85v171h86v85h-86v171h-85v341h85v171h86v85h85v85h171v86h597v-86h171v-85h85v-85h85v-171h-256v85h-85v86h-597v-86h-86v-85h-85v-256h85v-85h86v-86h597v-170h-85v-86h-512v-85h-86v-85h-85v-256h85v-86h86v-85h597v85h85v86h256v-171h-85v-85h-85v-86h-171v-85 h-597v85h-171v86h-85v85h-86v171h-85v341zM512 1536v341h85v-85h86v-85h85v-86h85v-341h-85v85h-85v86h-86v85h-85z" />
<glyph unicode="&#xc9;" horiz-adv-x="1450" d="M0 0h85v171h86v85h-86v171h-85v341h85v171h86v85h85v85h171v86h597v-86h171v-85h85v-85h85v-171h-256v85h-85v86h-597v-86h-86v-85h-85v-256h85v-85h86v-86h597v-170h-85v-86h-512v-85h-86v-85h-85v-256h85v-86h86v-85h597v85h85v86h256v-171h-85v-85h-85v-86h-171v-85 h-597v85h-171v86h-85v85h-86v171h-85v341zM512 1280v341h85v86h86v85h85v85h85v-341h-85v-85h-85v-86h-86v-85h-85z" />
<glyph unicode="&#xca;" horiz-adv-x="1450" d="M0 0h85v171h86v85h-86v171h-85v341h85v171h86v85h85v85h171v86h597v-86h171v-85h85v-85h85v-171h-256v85h-85v86h-597v-86h-86v-85h-85v-256h85v-85h86v-86h597v-170h-85v-86h-512v-85h-86v-85h-85v-256h85v-86h86v-85h597v85h85v86h256v-171h-85v-85h-85v-86h-171v-85 h-597v85h-171v86h-85v85h-86v171h-85v341zM171 1365v171h85v85h85v86h86v85h85v85h85v86h171v-86h85v-85h86v-85h85v-86h85v-85h86v-171h-256v86h-86v85h-85v85h-171v-85h-85v-85h-85v-86h-256z" />
<glyph unicode="&#xcb;" horiz-adv-x="1450" d="M0 0h85v171h86v85h-86v171h-85v341h85v171h86v85h85v85h171v86h597v-86h171v-85h85v-85h85v-171h-256v85h-85v86h-597v-86h-86v-85h-85v-256h85v-85h86v-86h597v-170h-85v-86h-512v-85h-86v-85h-85v-256h85v-86h86v-85h597v85h85v86h256v-171h-85v-85h-85v-86h-171v-85 h-597v85h-171v86h-85v85h-86v171h-85v341zM171 1280v256h256v-256h-256zM939 1280v256h256v-256h-256z" />
<glyph unicode="&#xcc;" horiz-adv-x="768" d="M341 -768v1877h86v86h170v-1878h-85v-85h-171zM341 1621v342h86v-86h85v-85h85v-85h86v-342h-86v86h-85v85h-85v85h-86z" />
<glyph unicode="&#xcd;" horiz-adv-x="768" d="M341 -768v1877h86v86h170v-1878h-85v-85h-171zM341 1365v342h86v85h85v85h85v86h86v-342h-86v-85h-85v-85h-85v-86h-86z" />
<glyph unicode="&#xce;" horiz-adv-x="1024" d="M0 1365v171h85v85h86v86h85v85h85v85h86v86h85v-86h85v-85h86v-85h85v-86h85v-85h86v-171h-256v86h-86v85h-85v85h-85v-85h-86v-85h-85v-86h-256zM341 -768v1877h86v86h170v-1878h-85v-85h-171z" />
<glyph unicode="&#xcf;" horiz-adv-x="853" d="M0 1365v256h256v-256h-256zM256 -768v1877h85v86h171v-1878h-85v-85h-171zM512 1365v256h256v-256h-256z" />
<glyph unicode="&#xd0;" horiz-adv-x="1621" d="M0 85v171h85v85h86v427h85v171h85v85h86v85h170v86h512v-86h171v-85h85v-85h86v-171h85v-1109h-85v-171h-86v-85h-85v-86h-171v-85h-597v171h85v85h512v85h86v86h85v1109h-85v85h-86v86h-512v-86h-85v-85h-85v-427h512v-170h-86v-86h-426v-768h-86v-85h-170v853h-171z " />
<glyph unicode="&#xd1;" horiz-adv-x="1792" d="M0 -768v1536h85v171h86v85h85v85h171v86h512v-86h170v-85h86v-85h85v-171h85v-1621h86v-86h256v-170h-86v-86h-341v86h-85v85h-86v1792h-85v85h-85v86h-512v-86h-86v-85h-85v-1451h-85v-85h-171zM0 1621v256h171v-85h85v-85h85v-86h171v86h85v85h86v85h341v-85h85v-85h86 v-86h85v-256h-171v86h-85v85h-85v85h-171v-85h-85v-85h-86v-86h-341v86h-85v85h-86v85h-85z" />
<glyph unicode="&#xd2;" horiz-adv-x="1536" d="M0 -341v1109h85v171h86v85h85v85h171v86h597v-86h171v-85h85v-85h85v-171h86v-1109h-86v-171h-85v-85h-85v-86h-171v-85h-597v85h-171v86h-85v85h-86v171h-85zM256 -341h85v-86h86v-85h597v85h85v86h86v1109h-86v85h-85v86h-597v-86h-86v-85h-85v-1109zM512 1621v342h85 v-86h86v-85h85v-85h85v-342h-85v86h-85v85h-86v85h-85z" />
<glyph unicode="&#xd3;" horiz-adv-x="1536" d="M0 -341v1109h85v171h86v85h85v85h171v86h597v-86h171v-85h85v-85h85v-171h86v-1109h-86v-171h-85v-85h-85v-86h-171v-85h-597v85h-171v86h-85v85h-86v171h-85zM256 -341h85v-86h86v-85h597v85h85v86h86v1109h-86v85h-85v86h-597v-86h-86v-85h-85v-1109zM512 1365v342h85 v85h86v85h85v86h85v-342h-85v-85h-85v-85h-86v-86h-85z" />
<glyph unicode="&#xd4;" horiz-adv-x="1536" d="M0 -341v1109h85v171h86v85h85v85h171v86h597v-86h171v-85h85v-85h85v-171h86v-1109h-86v-171h-85v-85h-85v-86h-171v-85h-597v85h-171v86h-85v85h-86v171h-85zM256 -341h85v-86h86v-85h597v85h85v86h86v1109h-86v85h-85v86h-597v-86h-86v-85h-85v-1109zM256 1365v171h85 v85h86v86h85v85h85v85h86v86h85v-86h85v-85h86v-85h85v-86h85v-85h86v-171h-256v86h-86v85h-85v85h-85v-85h-86v-85h-85v-86h-256z" />
<glyph unicode="&#xd5;" horiz-adv-x="1536" d="M0 -341v1109h85v171h86v85h85v85h171v86h597v-86h171v-85h85v-85h85v-171h86v-1109h-86v-171h-85v-85h-85v-86h-171v-85h-597v85h-171v86h-85v85h-86v171h-85zM85 1621v256h171v-85h85v-85h86v-86h170v86h86v85h85v85h341v-85h86v-85h85v-86h85v-256h-170v86h-86v85h-85 v85h-171v-85h-85v-85h-85v-86h-342v86h-85v85h-85v85h-86zM256 -341h85v-86h86v-85h597v85h85v86h86v1109h-86v85h-85v86h-597v-86h-86v-85h-85v-1109z" />
<glyph unicode="&#xd6;" horiz-adv-x="1536" d="M0 -341v1109h85v171h86v85h85v85h171v86h597v-86h171v-85h85v-85h85v-171h86v-1109h-86v-171h-85v-85h-85v-86h-171v-85h-597v85h-171v86h-85v85h-86v171h-85zM85 1365v256h256v-256h-256zM256 -341h85v-86h86v-85h597v85h85v86h86v1109h-86v85h-85v86h-597v-86h-86v-85 h-85v-1109zM1109 1365v256h256v-256h-256z" />
<glyph unicode="&#xd9;" horiz-adv-x="1450" d="M0 -341v1536h171v-86h85v-1450h85v-86h86v-85h512v85h85v86h85v1450h86v86h170v-1536h-85v-171h-85v-85h-86v-86h-170v-85h-512v85h-171v86h-85v85h-86v171h-85zM512 1621v342h85v-86h86v-85h85v-85h85v-342h-85v86h-85v85h-86v85h-85z" />
<glyph unicode="&#xda;" horiz-adv-x="1450" d="M0 -341v1536h171v-86h85v-1450h85v-86h86v-85h512v85h85v86h85v1450h86v86h170v-1536h-85v-171h-85v-85h-86v-86h-170v-85h-512v85h-171v86h-85v85h-86v171h-85zM512 1365v342h85v85h86v85h85v86h85v-342h-85v-85h-85v-85h-86v-86h-85z" />
<glyph unicode="&#xdb;" horiz-adv-x="1450" d="M0 -341v1536h171v-86h85v-1450h85v-86h86v-85h512v85h85v86h85v1450h86v86h170v-1536h-85v-171h-85v-85h-86v-86h-170v-85h-512v85h-171v86h-85v85h-86v171h-85zM171 1365v171h85v85h85v86h86v85h85v85h85v86h171v-86h85v-85h86v-85h85v-86h85v-85h86v-171h-256v86h-86 v85h-85v85h-171v-85h-85v-85h-85v-86h-256z" />
<glyph unicode="&#xdc;" horiz-adv-x="1450" d="M0 -341v1536h171v-86h85v-1450h85v-86h86v-85h512v85h85v86h85v1450h86v86h170v-1536h-85v-171h-85v-85h-86v-86h-170v-85h-512v85h-171v86h-85v85h-86v171h-85zM85 1365v256h256v-256h-256zM1024 1365v256h256v-256h-256z" />
<glyph unicode="&#xdd;" horiz-adv-x="1450" d="M0 -341h171v-86h85v-341h85v-85h86v-86h512v86h85v85h85v768h-170v-85h-512v85h-171v85h-85v86h-86v170h-85v854h171v-86h85v-768h85v-85h86v-85h512v85h85v85h85v768h86v86h170v-1963h-85v-171h-85v-85h-86v-85h-170v-86h-512v86h-171v85h-85v85h-86v171h-85v427z M512 1365v342h85v85h86v85h85v86h85v-342h-85v-85h-85v-85h-86v-86h-85z" />
<glyph unicode="&#xde;" horiz-adv-x="1450" d="M0 -768v1877h85v86h171v-342h683v-85h170v-85h86v-86h85v-170h85v-427h-85v-171h-85v-85h-86v-85h-170v-86h-683v-256h-85v-85h-171zM256 -171h683v86h85v85h85v427h-85v85h-85v85h-683v-768z" />
<glyph unicode="&#xdf;" horiz-adv-x="1450" d="M0 -768v1536h85v171h86v85h85v85h171v86h426v-86h171v-85h85v-171h86v-341h-86v-85h-85v-171h85v-85h86v-86h85v-170h85v-342h-85v-170h-85v-86h-171v-85h-683v171h86v85h512v85h85v86h85v256h-85v85h-85v85h-86v86h-85v85h-85v171h85v85h85v85h86v256h-86v86h-426v-86 h-86v-85h-85v-1451h-85v-85h-171z" />
<glyph unicode="&#xe0;" d="M0 0h85v171h86v85h85v85h171v86h341v-86h171v-85h85v-85h85v-171h86v-683h-86v-85h-170v768h-86v85h-85v86h-341v-86h-86v-85h-85v-341h85v-86h86v-85h426v-171h-85v-85h-341v85h-171v86h-85v85h-86v171h-85v341zM427 853v342h85v-86h85v-85h86v-85h85v-342h-85v86h-86 v85h-85v85h-85z" />
<glyph unicode="&#xe1;" d="M0 0h85v171h86v85h85v85h171v86h341v-86h171v-85h85v-85h85v-171h86v-683h-86v-85h-170v768h-86v85h-85v86h-341v-86h-86v-85h-85v-341h85v-86h86v-85h426v-171h-85v-85h-341v85h-171v86h-85v85h-86v171h-85v341zM427 597v342h85v85h85v85h86v86h85v-342h-85v-85h-86v-85 h-85v-86h-85z" />
<glyph unicode="&#xe2;" d="M0 0h85v171h86v85h85v85h171v86h341v-86h171v-85h85v-85h85v-171h86v-683h-86v-85h-170v768h-86v85h-85v86h-341v-86h-86v-85h-85v-341h85v-86h86v-85h426v-171h-85v-85h-341v85h-171v86h-85v85h-86v171h-85v341zM85 597v171h86v85h85v86h85v85h86v85h85v86h171v-86h85 v-85h85v-85h86v-86h85v-85h85v-171h-256v86h-85v85h-85v85h-171v-85h-85v-85h-86v-86h-256z" />
<glyph unicode="&#xe3;" horiz-adv-x="1365" d="M0 0h85v171h86v85h85v85h171v86h341v-86h171v-85h85v-85h85v-171h86v-683h-86v-85h-170v768h-86v85h-85v86h-341v-86h-86v-85h-85v-341h85v-86h86v-85h426v-171h-85v-85h-341v85h-171v86h-85v85h-86v171h-85v341zM0 853v256h171v-85h85v-85h85v-86h171v86h85v85h86v85 h341v-85h85v-85h86v-86h85v-256h-171v86h-85v85h-85v85h-171v-85h-85v-85h-86v-86h-341v86h-85v85h-86v85h-85z" />
<glyph unicode="&#xe4;" d="M0 0h85v171h86v85h85v85h171v86h341v-86h171v-85h85v-85h85v-171h86v-683h-86v-85h-170v768h-86v85h-85v86h-341v-86h-86v-85h-85v-341h85v-86h86v-85h426v-171h-85v-85h-341v85h-171v86h-85v85h-86v171h-85v341zM85 597v256h256v-256h-256zM853 597v256h256v-256h-256z " />
<glyph unicode="&#xe5;" d="M0 0h85v171h86v85h85v85h171v86h341v-86h171v-85h85v-85h85v-171h86v-683h-86v-85h-170v768h-86v85h-85v86h-341v-86h-86v-85h-85v-341h85v-86h86v-85h426v-171h-85v-85h-341v85h-171v86h-85v85h-86v171h-85v341zM256 768v341h85v86h86v85h341v-85h85v-86h86v-341h-86 v-85h-85v-86h-341v86h-86v85h-85zM427 853h85v-85h171v85h85v171h-85v85h-171v-85h-85v-171z" />
<glyph unicode="&#xe6;" horiz-adv-x="2218" d="M0 0h85v171h86v85h85v85h171v86h341v-86h171v-85h85v-85h85v85h86v85h170v86h427v-86h171v-85h85v-85h85v-342h-85v-85h-768v171h85v85h512v85h-85v86h-427v-86h-85v-85h-85v-341h85v-86h85v-85h427v85h85v86h256v-171h-85v-85h-85v-86h-171v-85h-512v85h-171v86h-85v85 h-85v512h-86v85h-85v86h-341v-86h-86v-85h-85v-341h85v-86h86v-85h426v-171h-85v-85h-341v85h-171v86h-85v85h-86v171h-85v341z" />
<glyph unicode="&#xe7;" horiz-adv-x="1194" d="M0 0h85v171h86v85h85v85h171v86h426v-86h171v-85h85v-171h-256v86h-426v-86h-86v-85h-85v-341h85v-86h86v-85h426v85h256v-170h-85v-86h-171v-85h-85v-171h-85v-85h-86v-85h-85v-86h-85v342h85v85h-85v85h-171v86h-85v85h-86v171h-85v341z" />
<glyph unicode="&#xe8;" d="M0 0h85v171h86v85h85v85h171v86h426v-86h171v-85h85v-85h86v-342h-86v-85h-768v171h86v85h512v85h-86v86h-426v-86h-86v-85h-85v-341h85v-86h86v-85h426v85h86v86h256v-171h-86v-85h-85v-86h-171v-85h-426v85h-171v86h-85v85h-86v171h-85v341zM512 853v342h85v-86h86v-85 h85v-85h85v-342h-85v86h-85v85h-86v85h-85z" />
<glyph unicode="&#xe9;" d="M0 0h85v171h86v85h85v85h171v86h426v-86h171v-85h85v-85h86v-342h-86v-85h-768v171h86v85h512v85h-86v86h-426v-86h-86v-85h-85v-341h85v-86h86v-85h426v85h86v86h256v-171h-86v-85h-85v-86h-171v-85h-426v85h-171v86h-85v85h-86v171h-85v341zM512 597v342h85v85h86v85 h85v86h85v-342h-85v-85h-85v-85h-86v-86h-85z" />
<glyph unicode="&#xea;" d="M0 0h85v171h86v85h85v85h171v86h426v-86h171v-85h85v-85h86v-342h-86v-85h-768v171h86v85h512v85h-86v86h-426v-86h-86v-85h-85v-341h85v-86h86v-85h426v85h86v86h256v-171h-86v-85h-85v-86h-171v-85h-426v85h-171v86h-85v85h-86v171h-85v341zM85 597v171h86v85h85v86h85 v85h86v85h85v86h171v-86h85v-85h85v-85h86v-86h85v-85h85v-171h-256v86h-85v85h-85v85h-171v-85h-85v-85h-86v-86h-256z" />
<glyph unicode="&#xeb;" d="M0 0h85v171h86v85h85v85h171v86h426v-86h171v-85h85v-85h86v-342h-86v-85h-768v171h86v85h512v85h-86v86h-426v-86h-86v-85h-85v-341h85v-86h86v-85h426v85h86v86h256v-171h-86v-85h-85v-86h-171v-85h-426v85h-171v86h-85v85h-86v171h-85v341zM85 597v256h256v-256h-256z M853 597v256h256v-256h-256z" />
<glyph unicode="&#xec;" horiz-adv-x="768" d="M341 427h86v85h170v-1195h-85v-85h-171v1195zM341 597v256h256v-256h-256zM341 1280v341h86v-85h85v-85h85v-86h86v-341h-86v85h-85v86h-85v85h-86z" />
<glyph unicode="&#xed;" horiz-adv-x="768" d="M341 427h86v85h170v-1195h-85v-85h-171v1195zM341 597v256h256v-256h-256zM341 1024v341h86v86h85v85h85v85h86v-341h-86v-85h-85v-86h-85v-85h-86z" />
<glyph unicode="&#xee;" horiz-adv-x="1024" d="M0 1024v171h85v85h86v85h85v86h85v85h86v85h85v-85h85v-85h86v-86h85v-85h85v-85h86v-171h-256v85h-86v86h-85v85h-85v-85h-86v-86h-85v-85h-256zM341 427h86v85h170v-1195h-85v-85h-171v1195zM341 597v256h256v-256h-256z" />
<glyph unicode="&#xef;" horiz-adv-x="853" d="M0 1024v256h256v-256h-256zM256 427h85v85h171v-1195h-85v-85h-171v1195zM256 597v256h256v-256h-256zM512 1024v256h256v-256h-256z" />
<glyph unicode="&#xf0;" horiz-adv-x="1450" d="M0 0h85v171h86v85h85v85h171v86h341v-86h85v-170h-426v-86h-86v-85h-85v-341h85v-86h86v-85h341v85h85v86h86v768h-86v256h-170v-86h-342v171h171v85h171v86h-86v256h171v-86h85v-85h171v85h341v-170h-170v-86h-171v-170h85v-256h86v-768h-86v-171h-85v-85h-85v-86h-171 v-85h-341v85h-171v86h-85v85h-86v171h-85v341z" />
<glyph unicode="&#xf1;" horiz-adv-x="1621" d="M0 0h85v171h86v85h85v85h171v86h341v-86h171v-85h85v-85h85v-171h86v-853h85v-86h256v-170h-85v-86h-342v86h-85v85h-85v1024h-86v85h-85v86h-341v-86h-86v-85h-85v-683h-85v-85h-171v768zM0 853v256h171v-85h85v-85h85v-86h171v86h85v85h86v85h341v-85h85v-85h86v-86h85 v-256h-171v86h-85v85h-85v85h-171v-85h-85v-85h-86v-86h-341v86h-85v85h-86v85h-85z" />
<glyph unicode="&#xf2;" d="M0 0h85v171h86v85h85v85h171v86h341v-86h171v-85h85v-85h85v-171h86v-341h-86v-171h-85v-85h-85v-86h-171v-85h-341v85h-171v86h-85v85h-86v171h-85v341zM256 0v-341h85v-86h86v-85h341v85h85v86h86v341h-86v85h-85v86h-341v-86h-86v-85h-85zM427 853v342h85v-86h85v-85 h86v-85h85v-342h-85v86h-86v85h-85v85h-85z" />
<glyph unicode="&#xf3;" d="M0 0h85v171h86v85h85v85h171v86h341v-86h171v-85h85v-85h85v-171h86v-341h-86v-171h-85v-85h-85v-86h-171v-85h-341v85h-171v86h-85v85h-86v171h-85v341zM256 0v-341h85v-86h86v-85h341v85h85v86h86v341h-86v85h-85v86h-341v-86h-86v-85h-85zM427 597v342h85v85h85v85h86 v86h85v-342h-85v-85h-86v-85h-85v-86h-85z" />
<glyph unicode="&#xf4;" d="M0 0h85v171h86v85h85v85h171v86h341v-86h171v-85h85v-85h85v-171h86v-341h-86v-171h-85v-85h-85v-86h-171v-85h-341v85h-171v86h-85v85h-86v171h-85v341zM85 597v171h86v85h85v86h85v85h86v85h85v86h171v-86h85v-85h85v-85h86v-86h85v-85h85v-171h-256v86h-85v85h-85v85 h-171v-85h-85v-85h-86v-86h-256zM256 0v-341h85v-86h86v-85h341v85h85v86h86v341h-86v85h-85v86h-341v-86h-86v-85h-85z" />
<glyph unicode="&#xf5;" horiz-adv-x="1365" d="M0 0h85v171h86v85h85v85h171v86h341v-86h171v-85h85v-85h85v-171h86v-341h-86v-171h-85v-85h-85v-86h-171v-85h-341v85h-171v86h-85v85h-86v171h-85v341zM0 853v256h171v-85h85v-85h85v-86h171v86h85v85h86v85h341v-85h85v-85h86v-86h85v-256h-171v86h-85v85h-85v85h-171 v-85h-85v-85h-86v-86h-341v86h-85v85h-86v85h-85zM256 0v-341h85v-86h86v-85h341v85h85v86h86v341h-86v85h-85v86h-341v-86h-86v-85h-85z" />
<glyph unicode="&#xf6;" d="M0 0h85v171h86v85h85v85h171v86h341v-86h171v-85h85v-85h85v-171h86v-341h-86v-171h-85v-85h-85v-86h-171v-85h-341v85h-171v86h-85v85h-86v171h-85v341zM85 597v256h256v-256h-256zM256 0v-341h85v-86h86v-85h341v85h85v86h86v341h-86v85h-85v86h-341v-86h-86v-85h-85z M853 597v256h256v-256h-256z" />
<glyph unicode="&#xf9;" d="M0 -341v768h171v-86h85v-682h85v-86h86v-85h341v85h85v86h86v682h85v86h171v-768h-86v-171h-85v-85h-85v-86h-171v-85h-341v85h-171v86h-85v85h-86v171h-85zM427 853v342h85v-86h85v-85h86v-85h85v-342h-85v86h-86v85h-85v85h-85z" />
<glyph unicode="&#xfa;" d="M0 -341v768h171v-86h85v-682h85v-86h86v-85h341v85h85v86h86v682h85v86h171v-768h-86v-171h-85v-85h-85v-86h-171v-85h-341v85h-171v86h-85v85h-86v171h-85zM427 597v342h85v85h85v85h86v86h85v-342h-85v-85h-86v-85h-85v-86h-85z" />
<glyph unicode="&#xfb;" d="M0 -341v768h171v-86h85v-682h85v-86h86v-85h341v85h85v86h86v682h85v86h171v-768h-86v-171h-85v-85h-85v-86h-171v-85h-341v85h-171v86h-85v85h-86v171h-85zM85 597v171h86v85h85v86h85v85h86v85h85v86h171v-86h85v-85h85v-85h86v-86h85v-85h85v-171h-256v86h-85v85h-85 v85h-171v-85h-85v-85h-86v-86h-256z" />
<glyph unicode="&#xfc;" d="M0 -341v768h171v-86h85v-682h85v-86h86v-85h341v85h85v86h86v682h85v86h171v-768h-86v-171h-85v-85h-85v-86h-171v-85h-341v85h-171v86h-85v85h-86v171h-85zM85 597v256h256v-256h-256zM853 597v256h256v-256h-256z" />
<glyph unicode="&#xfd;" d="M0 -256v768h171v-85h85v-683h85v-85h86v-86h341v86h85v85h86v683h85v85h171v-1280h-86v-171h-85v-85h-85v-85h-171v-86h-597v86h-86v170h683v86h85v85h86v171h-171v-86h-341v86h-171v85h-85v85h-86v171h-85zM427 597v342h85v85h85v85h86v86h85v-342h-85v-85h-86v-85h-85 v-86h-85z" />
<glyph unicode="&#xfe;" horiz-adv-x="1450" d="M0 1109h85v86h171v-598h85v86h171v85h427v-85h170v-86h86v-85h85v-171h85v-682h-85v-171h-85v-85h-86v-86h-170v-85h-427v85h-171v86h-85v-512h-85v-86h-171v2304zM256 341v-682h171v-86h85v-85h427v85h85v86h85v682h-85v86h-85v85h-427v-85h-85v-86h-171z" />
<glyph unicode="&#xff;" d="M0 -256v768h171v-85h85v-683h85v-85h86v-86h341v86h85v85h86v683h85v85h171v-1280h-86v-171h-85v-85h-85v-85h-171v-86h-597v86h-86v170h683v86h85v85h86v171h-171v-86h-341v86h-171v85h-85v85h-86v171h-85zM85 597v256h256v-256h-256zM853 597v256h256v-256h-256z" />
<glyph unicode="&#x178;" horiz-adv-x="1450" d="M0 -341h171v-86h85v-341h85v-85h86v-86h512v86h85v85h85v768h-170v-85h-512v85h-171v85h-85v86h-86v170h-85v854h171v-86h85v-768h85v-85h86v-85h512v85h85v85h85v768h86v86h170v-1963h-85v-171h-85v-85h-86v-85h-170v-86h-512v86h-171v85h-85v85h-86v171h-85v427z M85 1365v256h256v-256h-256zM1024 1365v256h256v-256h-256z" />
<glyph unicode="&#x2000;" horiz-adv-x="981" />
<glyph unicode="&#x2001;" horiz-adv-x="1963" />
<glyph unicode="&#x2002;" horiz-adv-x="981" />
<glyph unicode="&#x2003;" horiz-adv-x="1963" />
<glyph unicode="&#x2004;" horiz-adv-x="654" />
<glyph unicode="&#x2005;" horiz-adv-x="490" />
<glyph unicode="&#x2006;" horiz-adv-x="327" />
<glyph unicode="&#x2007;" horiz-adv-x="327" />
<glyph unicode="&#x2008;" horiz-adv-x="245" />
<glyph unicode="&#x2009;" horiz-adv-x="392" />
<glyph unicode="&#x200a;" horiz-adv-x="109" />
<glyph unicode="&#x2010;" horiz-adv-x="1536" d="M0 85h1365v-85h86v-171h-1366v86h-85v170z" />
<glyph unicode="&#x2011;" horiz-adv-x="1536" d="M0 85h1365v-85h86v-171h-1366v86h-85v170z" />
<glyph unicode="&#x2012;" horiz-adv-x="1536" d="M0 85h1365v-85h86v-171h-1366v86h-85v170z" />
<glyph unicode="&#x2013;" horiz-adv-x="1109" d="M0 85h963v-85h61v-171h-964v86h-60v170z" />
<glyph unicode="&#x2014;" horiz-adv-x="2133" d="M0 85h1927v-85h121v-171h-1928v86h-120v170z" />
<glyph unicode="&#x202f;" horiz-adv-x="392" />
<glyph unicode="&#x205f;" horiz-adv-x="490" />
<glyph unicode="&#x25fc;" horiz-adv-x="513" d="M0 0v513h513v-513h-513z" />
</font>
</defs>
</svg>
